<svg id="Layer_1" data-name="Layer 1" xmlns="http://www.w3.org/2000/svg" viewBox="0 0 400 400"><defs><style>.cls-1{fill:#e1e1df;}.cls-2{fill:#805026;}.cls-3{fill:#47301f;}.cls-4{fill:#95623b;}.cls-5{fill:#fff8d2;}</style></defs><title>Almond Mocha</title><path class="cls-1" d="M28.85,98.6v83.72a82.68,82.68,0,0,0,18.72,52.39l42,51.24a82.68,82.68,0,0,0,64,30.29h39.27A82.68,82.68,0,0,0,258,284.37l39.89-51.21a82.68,82.68,0,0,0,17.45-50.81V98.6Z"/><rect class="cls-1" x="108.41" y="313.76" width="129.92" height="18.88" rx="2.12" ry="2.12"/><path class="cls-2" d="M79.39,137.56v56.05a56.32,56.32,0,0,0,12.19,35.08L118.91,263a53.27,53.27,0,0,0,41.64,20.28h25.57a53.31,53.31,0,0,0,42.47-21.34l26-34.29a56.36,56.36,0,0,0,11.36-34V137.56Z"/><path class="cls-3" d="M79.39,190.86v2.75a56.32,56.32,0,0,0,12.19,35.08L118.91,263a53.27,53.27,0,0,0,41.64,20.28h25.57a53.31,53.31,0,0,0,42.47-21.34l26-34.29a56.36,56.36,0,0,0,11.36-34v-2.77Z"/><circle class="cls-4" cx="148.51" cy="214.74" r="5.16"/><circle class="cls-4" cx="173.37" cy="219.29" r="5.16" transform="translate(-62.03 370.06) rotate(-84.31)"/><circle class="cls-4" cx="200.76" cy="209.59" r="5.16"/><circle class="cls-4" cx="185.61" cy="241.58" r="5.16"/><circle class="cls-4" cx="158.82" cy="251.89" r="5.16"/><path class="cls-1" d="M351.42,115.92c-11.1-2-28.63-1-34.34,5.53-14.66,16.83-15.7,87.88-15.7,87.88C318,179.1,367.77,177,371.5,156.26,376.64,127.62,360,117.48,351.42,115.92ZM343.8,157.4A15.38,15.38,0,1,1,359.19,142,15.38,15.38,0,0,1,343.8,157.4Z"/><rect class="cls-5" x="79.39" y="175.81" width="186.53" height="15.17"/></svg>