<svg id="Layer_1" data-name="Layer 1" xmlns="http://www.w3.org/2000/svg" viewBox="0 0 400 400"><defs><style>.cls-1{fill:#e1e1df;}.cls-2{fill:#805026;}.cls-3{fill:#47301f;}.cls-4{fill:#95623b;}.cls-5{fill:#ba713f;}.cls-6{fill:#fff;}.cls-7{fill:#b8703e;}.cls-8{fill:#ef6666;}</style></defs><title>Caramel Mocha</title><path class="cls-1" d="M30.63,100.47V184.2a82.68,82.68,0,0,0,18.72,52.39l42,51.24a82.68,82.68,0,0,0,64,30.29h39.27a82.68,82.68,0,0,0,65.23-31.87L299.67,235a82.68,82.68,0,0,0,17.45-50.81V100.47Z"/><rect class="cls-1" x="110.19" y="315.63" width="129.92" height="18.88" rx="2.12" ry="2.12"/><path class="cls-2" d="M81.17,139.44v56.05a56.32,56.32,0,0,0,12.19,35.08l27.33,34.31a53.27,53.27,0,0,0,41.64,20.28h25.57a53.31,53.31,0,0,0,42.47-21.34l26-34.29a56.36,56.36,0,0,0,11.36-34V139.44Z"/><path class="cls-3" d="M81.17,192.74v2.75a56.32,56.32,0,0,0,12.19,35.08l27.33,34.31a53.27,53.27,0,0,0,41.64,20.28h25.57a53.31,53.31,0,0,0,42.47-21.34l26-34.29a56.36,56.36,0,0,0,11.36-34v-2.77Z"/><circle class="cls-4" cx="150.28" cy="216.62" r="5.16"/><circle class="cls-4" cx="175.14" cy="221.16" r="5.16" transform="translate(-62.3 373.52) rotate(-84.31)"/><circle class="cls-4" cx="202.54" cy="211.46" r="5.16"/><circle class="cls-4" cx="187.39" cy="243.45" r="5.16"/><circle class="cls-4" cx="160.59" cy="253.77" r="5.16"/><path class="cls-1" d="M353.19,117.79c-11.1-2-28.63-1-34.34,5.53-14.66,16.83-15.7,87.88-15.7,87.88,16.63-30.22,66.39-32.3,70.12-53.07C378.41,129.5,361.78,119.36,353.19,117.79Zm-7.61,41.49A15.38,15.38,0,1,1,361,143.89,15.38,15.38,0,0,1,345.58,159.28Z"/><rect class="cls-5" x="81.17" y="176.69" width="186.53" height="15.17"/><path class="cls-6" d="M171.34,15.5s6.25,18.42-2,18.42-39.19,3-43.11,20c0,0-22.09,9.69-20.66,22.35,0,0-24.89-2.82-25,26.22,0,0,10.53,32.47,52,32.47h92.15s42.83-22.61,42.94-31.95c0,0-.11-20.76-28.67-25.3,0,0,4-22.75-21.55-25.75C217.48,52,196.39,20.67,171.34,15.5Z"/><ellipse class="cls-7" cx="135.33" cy="58.96" rx="0.36" ry="0.38"/><ellipse class="cls-7" cx="143.59" cy="57.71" rx="0.36" ry="0.38"/><ellipse class="cls-7" cx="131.14" cy="57.67" rx="0.36" ry="0.38"/><ellipse class="cls-7" cx="133.54" cy="62.55" rx="0.36" ry="0.38"/><ellipse class="cls-7" cx="140.96" cy="58.58" rx="0.36" ry="0.38"/><ellipse class="cls-7" cx="138.92" cy="62.14" rx="0.36" ry="0.38"/><ellipse class="cls-7" cx="141.31" cy="67.02" rx="0.36" ry="0.38"/><ellipse class="cls-7" cx="128.75" cy="61.24" rx="0.36" ry="0.38"/><ellipse class="cls-7" cx="131.14" cy="66.11" rx="0.36" ry="0.38"/><ellipse class="cls-7" cx="138.68" cy="64.58" rx="0.36" ry="0.38"/><ellipse class="cls-7" cx="145.74" cy="66.27" rx="0.36" ry="0.38"/><ellipse class="cls-7" cx="144.31" cy="55.24" rx="0.36" ry="0.38"/><ellipse class="cls-7" cx="146.7" cy="60.11" rx="0.36" ry="0.38"/><ellipse class="cls-7" cx="157.62" cy="58.9" rx="0.36" ry="0.38"/><ellipse class="cls-7" cx="153.44" cy="57.62" rx="0.36" ry="0.38"/><ellipse class="cls-7" cx="155.83" cy="62.49" rx="0.36" ry="0.38"/><ellipse class="cls-7" cx="161.21" cy="62.09" rx="0.36" ry="0.38"/><ellipse class="cls-7" cx="151.04" cy="61.18" rx="0.36" ry="0.38"/><ellipse class="cls-7" cx="153.44" cy="66.06" rx="0.36" ry="0.38"/><ellipse class="cls-7" cx="160.97" cy="64.53" rx="0.36" ry="0.38"/><ellipse class="cls-7" cx="132.96" cy="72.27" rx="0.36" ry="0.38"/><ellipse class="cls-7" cx="133.62" cy="71.08" rx="0.36" ry="0.38"/><ellipse class="cls-7" cx="138.95" cy="73.8" rx="0.36" ry="0.38"/><ellipse class="cls-7" cx="136.19" cy="67.02" rx="0.36" ry="0.38"/><ellipse class="cls-7" cx="138.59" cy="71.9" rx="0.36" ry="0.38"/><ellipse class="cls-7" cx="136.55" cy="75.46" rx="0.36" ry="0.38"/><ellipse class="cls-7" cx="138.95" cy="80.34" rx="0.36" ry="0.38"/><ellipse class="cls-7" cx="136.31" cy="77.9" rx="0.36" ry="0.38"/><ellipse class="cls-7" cx="135.78" cy="79.65" rx="0.36" ry="0.38"/><ellipse class="cls-7" cx="134.34" cy="68.61" rx="0.36" ry="0.38"/><ellipse class="cls-7" cx="136.73" cy="73.49" rx="0.36" ry="0.38"/><ellipse class="cls-7" cx="140.61" cy="71.3" rx="0.36" ry="0.38"/><ellipse class="cls-7" cx="138.22" cy="74.86" rx="0.36" ry="0.38"/><ellipse class="cls-7" cx="140.61" cy="79.74" rx="0.36" ry="0.38"/><ellipse class="cls-7" cx="177.62" cy="76.64" rx="0.36" ry="0.38"/><ellipse class="cls-7" cx="178.81" cy="85.26" rx="0.36" ry="0.38"/><ellipse class="cls-7" cx="178.85" cy="72.26" rx="0.36" ry="0.38"/><ellipse class="cls-7" cx="174.18" cy="74.76" rx="0.36" ry="0.38"/><ellipse class="cls-7" cx="177.98" cy="82.51" rx="0.36" ry="0.38"/><ellipse class="cls-7" cx="174.57" cy="80.39" rx="0.36" ry="0.38"/><ellipse class="cls-7" cx="169.9" cy="82.89" rx="0.36" ry="0.38"/><ellipse class="cls-7" cx="175.44" cy="69.76" rx="0.36" ry="0.38"/><ellipse class="cls-7" cx="170.77" cy="72.26" rx="0.36" ry="0.38"/><ellipse class="cls-7" cx="172.23" cy="80.14" rx="0.36" ry="0.38"/><ellipse class="cls-7" cx="170.62" cy="87.51" rx="0.36" ry="0.38"/><ellipse class="cls-7" cx="181.18" cy="86.01" rx="0.36" ry="0.38"/><ellipse class="cls-7" cx="176.51" cy="88.51" rx="0.36" ry="0.38"/><ellipse class="cls-7" cx="177.67" cy="99.93" rx="0.36" ry="0.38"/><ellipse class="cls-7" cx="178.9" cy="95.55" rx="0.36" ry="0.38"/><ellipse class="cls-7" cx="174.23" cy="98.05" rx="0.36" ry="0.38"/><ellipse class="cls-6" cx="174.62" cy="103.68" rx="0.36" ry="0.38"/><ellipse class="cls-7" cx="175.49" cy="93.05" rx="0.36" ry="0.38"/><ellipse class="cls-7" cx="170.82" cy="95.55" rx="0.36" ry="0.38"/><ellipse class="cls-7" cx="172.29" cy="103.43" rx="0.36" ry="0.38"/><ellipse class="cls-7" cx="164.88" cy="74.16" rx="0.36" ry="0.38"/><ellipse class="cls-7" cx="166.01" cy="74.85" rx="0.36" ry="0.38"/><ellipse class="cls-7" cx="163.41" cy="80.41" rx="0.36" ry="0.38"/><ellipse class="cls-7" cx="169.9" cy="77.54" rx="0.36" ry="0.38"/><ellipse class="cls-7" cx="165.23" cy="80.04" rx="0.36" ry="0.38"/><ellipse class="cls-7" cx="161.82" cy="77.91" rx="0.36" ry="0.38"/><ellipse class="cls-7" cx="157.16" cy="80.41" rx="0.36" ry="0.38"/><ellipse class="cls-7" cx="159.49" cy="77.66" rx="0.36" ry="0.38"/><ellipse class="cls-7" cx="157.82" cy="77.1" rx="0.36" ry="0.38"/><ellipse class="cls-7" cx="168.38" cy="75.6" rx="0.36" ry="0.38"/><ellipse class="cls-7" cx="163.71" cy="78.1" rx="0.36" ry="0.38"/><ellipse class="cls-7" cx="165.8" cy="82.15" rx="0.36" ry="0.38"/><ellipse class="cls-7" cx="162.39" cy="79.65" rx="0.36" ry="0.38"/><ellipse class="cls-7" cx="157.73" cy="82.15" rx="0.36" ry="0.38"/><ellipse class="cls-7" cx="203.5" cy="55.6" rx="0.36" ry="0.38"/><ellipse class="cls-7" cx="204.7" cy="64.23" rx="0.36" ry="0.38"/><ellipse class="cls-7" cx="204.73" cy="51.22" rx="0.36" ry="0.38"/><ellipse class="cls-7" cx="200.06" cy="53.72" rx="0.36" ry="0.38"/><ellipse class="cls-7" cx="203.86" cy="61.47" rx="0.36" ry="0.38"/><ellipse class="cls-7" cx="200.45" cy="59.35" rx="0.36" ry="0.38"/><ellipse class="cls-7" cx="195.79" cy="61.85" rx="0.36" ry="0.38"/><ellipse class="cls-7" cx="201.32" cy="48.72" rx="0.36" ry="0.38"/><ellipse class="cls-7" cx="196.65" cy="51.22" rx="0.36" ry="0.38"/><ellipse class="cls-7" cx="198.12" cy="59.1" rx="0.36" ry="0.38"/><ellipse class="cls-7" cx="196.5" cy="66.48" rx="0.36" ry="0.38"/><ellipse class="cls-7" cx="207.06" cy="64.98" rx="0.36" ry="0.38"/><ellipse class="cls-7" cx="202.4" cy="67.48" rx="0.36" ry="0.38"/><ellipse class="cls-7" cx="203.56" cy="78.89" rx="0.36" ry="0.38"/><ellipse class="cls-7" cx="204.78" cy="74.52" rx="0.36" ry="0.38"/><ellipse class="cls-7" cx="200.12" cy="77.02" rx="0.36" ry="0.38"/><ellipse class="cls-7" cx="200.51" cy="82.64" rx="0.36" ry="0.38"/><ellipse class="cls-7" cx="201.37" cy="72.01" rx="0.36" ry="0.38"/><ellipse class="cls-7" cx="196.71" cy="74.52" rx="0.36" ry="0.38"/><ellipse class="cls-7" cx="198.17" cy="82.39" rx="0.36" ry="0.38"/><ellipse class="cls-7" cx="190.76" cy="53.12" rx="0.36" ry="0.38"/><ellipse class="cls-7" cx="191.9" cy="53.81" rx="0.36" ry="0.38"/><ellipse class="cls-7" cx="189.3" cy="59.38" rx="0.36" ry="0.38"/><ellipse class="cls-7" cx="195.79" cy="56.5" rx="0.36" ry="0.38"/><ellipse class="cls-7" cx="191.12" cy="59" rx="0.36" ry="0.38"/><ellipse class="cls-7" cx="187.71" cy="56.88" rx="0.36" ry="0.38"/><ellipse class="cls-7" cx="183.04" cy="59.38" rx="0.36" ry="0.38"/><ellipse class="cls-7" cx="185.38" cy="56.63" rx="0.36" ry="0.38"/><ellipse class="cls-7" cx="183.7" cy="56.06" rx="0.36" ry="0.38"/><ellipse class="cls-7" cx="194.26" cy="54.56" rx="0.36" ry="0.38"/><ellipse class="cls-7" cx="189.6" cy="57.06" rx="0.36" ry="0.38"/><ellipse class="cls-7" cx="191.69" cy="61.12" rx="0.36" ry="0.38"/><ellipse class="cls-7" cx="188.28" cy="58.62" rx="0.36" ry="0.38"/><ellipse class="cls-7" cx="183.61" cy="61.12" rx="0.36" ry="0.38"/><ellipse class="cls-7" cx="210.46" cy="87.75" rx="0.36" ry="0.37" transform="translate(-7.87 21.98) rotate(-5.87)"/><ellipse class="cls-7" cx="218.56" cy="85.66" rx="0.36" ry="0.37" transform="translate(-7.61 22.8) rotate(-5.87)"/><ellipse class="cls-7" cx="206.17" cy="86.9" rx="0.36" ry="0.37" transform="translate(-7.81 21.54) rotate(-5.87)"/><ellipse class="cls-7" cx="209.01" cy="91.51" rx="0.36" ry="0.37" transform="translate(-8.26 21.85) rotate(-5.87)"/><ellipse class="cls-7" cx="216.02" cy="86.8" rx="0.36" ry="0.37" transform="translate(-7.74 22.54) rotate(-5.87)"/><ellipse class="cls-7" cx="214.33" cy="90.56" rx="0.36" ry="0.37" transform="translate(-8.14 22.39) rotate(-5.87)"/><ellipse class="cls-7" cx="217.17" cy="95.17" rx="0.36" ry="0.37" transform="translate(-8.59 22.7) rotate(-5.87)"/><ellipse class="cls-7" cx="204.12" cy="90.7" rx="0.36" ry="0.37" transform="translate(-8.2 21.35) rotate(-5.87)"/><ellipse class="cls-7" cx="206.96" cy="95.3" rx="0.36" ry="0.37" transform="translate(-8.66 21.66) rotate(-5.87)"/><ellipse class="cls-7" cx="214.32" cy="93.01" rx="0.36" ry="0.37" transform="translate(-8.39 22.4) rotate(-5.87)"/><ellipse class="cls-7" cx="221.5" cy="93.97" rx="0.36" ry="0.37" transform="translate(-8.45 23.14) rotate(-5.87)"/><ellipse class="cls-7" cx="219.04" cy="83.13" rx="0.36" ry="0.37" transform="translate(-7.35 22.83) rotate(-5.87)"/><ellipse class="cls-7" cx="221.88" cy="87.74" rx="0.36" ry="0.37" transform="translate(-7.81 23.15) rotate(-5.87)"/><ellipse class="cls-7" cx="232.64" cy="85.42" rx="0.36" ry="0.37" transform="translate(-7.51 24.23) rotate(-5.87)"/><ellipse class="cls-7" cx="228.35" cy="84.57" rx="0.36" ry="0.37" transform="translate(-7.45 23.79) rotate(-5.87)"/><ellipse class="cls-7" cx="231.19" cy="89.18" rx="0.36" ry="0.37" transform="translate(-7.91 24.11) rotate(-5.87)"/><ellipse class="cls-6" cx="236.51" cy="88.22" rx="0.36" ry="0.37" transform="translate(-7.78 24.65) rotate(-5.87)"/><path class="cls-7" d="M226.66,88.32a.37.37,0,0,1-.32.41.36.36,0,0,1-.39-.34"/><ellipse class="cls-7" cx="229.14" cy="92.97" rx="0.36" ry="0.37" transform="translate(-8.3 23.92) rotate(-5.87)"/><ellipse class="cls-6" cx="236.5" cy="90.67" rx="0.36" ry="0.37" transform="translate(-8.03 24.66) rotate(-5.87)"/><ellipse class="cls-7" cx="209.35" cy="101.25" rx="0.36" ry="0.37" transform="translate(-9.26 21.94) rotate(-5.87)"/><ellipse class="cls-7" cx="209.89" cy="100" rx="0.36" ry="0.37" transform="translate(-9.12 21.99) rotate(-5.87)"/><ellipse class="cls-7" cx="215.45" cy="102.16" rx="0.36" ry="0.37" transform="translate(-9.32 22.56) rotate(-5.87)"/><ellipse class="cls-7" cx="212.07" cy="95.69" rx="0.36" ry="0.37" transform="translate(-8.67 22.19) rotate(-5.87)"/><ellipse class="cls-7" cx="214.91" cy="100.3" rx="0.36" ry="0.37" transform="translate(-9.13 22.5) rotate(-5.87)"/><ellipse class="cls-6" cx="213.22" cy="104.05" rx="0.36" ry="0.37" transform="translate(-9.52 22.35) rotate(-5.87)"/><ellipse class="cls-6" cx="216.06" cy="108.66" rx="0.36" ry="0.37" transform="translate(-9.98 22.66) rotate(-5.87)"/><ellipse class="cls-6" cx="213.21" cy="106.5" rx="0.36" ry="0.37" transform="translate(-9.77 22.36) rotate(-5.87)"/><ellipse class="cls-8" cx="212.84" cy="108.3" rx="0.36" ry="0.37" transform="translate(-9.96 22.33) rotate(-5.87)"/><ellipse class="cls-7" cx="210.38" cy="97.47" rx="0.36" ry="0.37" transform="translate(-8.86 22.02) rotate(-5.87)"/><ellipse class="cls-7" cx="213.22" cy="102.07" rx="0.36" ry="0.37" transform="translate(-9.32 22.34) rotate(-5.87)"/><ellipse class="cls-7" cx="216.87" cy="99.5" rx="0.36" ry="0.37" transform="translate(-9.04 22.7) rotate(-5.87)"/><ellipse class="cls-7" cx="214.82" cy="103.29" rx="0.36" ry="0.37" transform="translate(-9.44 22.51) rotate(-5.87)"/><ellipse class="cls-8" cx="217.66" cy="107.9" rx="0.36" ry="0.37" transform="translate(-9.89 22.82) rotate(-5.87)"/><ellipse class="cls-7" cx="162.65" cy="55.01" rx="0.36" ry="0.37" transform="translate(-4.77 16.92) rotate(-5.87)"/><ellipse class="cls-7" cx="170.75" cy="52.92" rx="0.36" ry="0.37" transform="translate(-4.52 17.74) rotate(-5.87)"/><ellipse class="cls-7" cx="158.36" cy="54.16" rx="0.36" ry="0.37" transform="translate(-4.71 16.48) rotate(-5.87)"/><ellipse class="cls-7" cx="161.2" cy="58.77" rx="0.36" ry="0.37" transform="translate(-5.16 16.79) rotate(-5.87)"/><ellipse class="cls-7" cx="168.21" cy="54.06" rx="0.36" ry="0.37" transform="translate(-4.65 17.48) rotate(-5.87)"/><ellipse class="cls-7" cx="166.52" cy="57.82" rx="0.36" ry="0.37" transform="translate(-5.04 17.33) rotate(-5.87)"/><ellipse class="cls-7" cx="169.36" cy="62.43" rx="0.36" ry="0.37" transform="translate(-5.5 17.64) rotate(-5.87)"/><ellipse class="cls-7" cx="156.31" cy="57.95" rx="0.36" ry="0.37" transform="translate(-5.11 16.29) rotate(-5.87)"/><ellipse class="cls-7" cx="159.15" cy="62.56" rx="0.36" ry="0.37" transform="translate(-5.56 16.6) rotate(-5.87)"/><ellipse class="cls-7" cx="166.51" cy="60.27" rx="0.36" ry="0.37" transform="translate(-5.29 17.34) rotate(-5.87)"/><ellipse class="cls-7" cx="173.69" cy="61.23" rx="0.36" ry="0.37" transform="translate(-5.35 18.08) rotate(-5.87)"/><ellipse class="cls-7" cx="171.23" cy="50.39" rx="0.36" ry="0.37" transform="translate(-4.25 17.77) rotate(-5.87)"/><ellipse class="cls-7" cx="174.07" cy="55" rx="0.36" ry="0.37" transform="translate(-4.71 18.09) rotate(-5.87)"/><ellipse class="cls-7" cx="184.83" cy="52.68" rx="0.36" ry="0.37" transform="translate(-4.42 19.17) rotate(-5.87)"/><ellipse class="cls-7" cx="180.54" cy="51.83" rx="0.36" ry="0.37" transform="translate(-4.35 18.73) rotate(-5.87)"/><ellipse class="cls-7" cx="183.38" cy="56.44" rx="0.36" ry="0.37" transform="translate(-4.81 19.05) rotate(-5.87)"/><ellipse class="cls-7" cx="188.7" cy="55.48" rx="0.36" ry="0.37" transform="translate(-4.68 19.58) rotate(-5.87)"/><ellipse class="cls-7" cx="178.49" cy="55.62" rx="0.36" ry="0.37" transform="translate(-4.75 18.54) rotate(-5.87)"/><ellipse class="cls-7" cx="181.33" cy="60.23" rx="0.36" ry="0.37" transform="translate(-5.21 18.86) rotate(-5.87)"/><ellipse class="cls-7" cx="188.69" cy="57.93" rx="0.36" ry="0.37" transform="translate(-4.93 19.6) rotate(-5.87)"/><ellipse class="cls-7" cx="161.54" cy="68.51" rx="0.36" ry="0.37" transform="translate(-6.16 16.88) rotate(-5.87)"/><ellipse class="cls-7" cx="162.08" cy="67.26" rx="0.36" ry="0.37" transform="translate(-6.03 16.93) rotate(-5.87)"/><ellipse class="cls-7" cx="167.64" cy="69.42" rx="0.36" ry="0.37" transform="translate(-6.22 17.5) rotate(-5.87)"/><ellipse class="cls-7" cx="164.26" cy="62.95" rx="0.36" ry="0.37" transform="translate(-5.58 17.13) rotate(-5.87)"/><ellipse class="cls-7" cx="167.1" cy="67.56" rx="0.36" ry="0.37" transform="translate(-6.03 17.44) rotate(-5.87)"/><ellipse class="cls-7" cx="165.41" cy="71.31" rx="0.36" ry="0.37" transform="translate(-6.42 17.29) rotate(-5.87)"/><ellipse class="cls-7" cx="168.25" cy="75.92" rx="0.36" ry="0.37" transform="translate(-6.88 17.6) rotate(-5.87)"/><ellipse class="cls-7" cx="165.4" cy="73.76" rx="0.36" ry="0.37" transform="translate(-6.68 17.3) rotate(-5.87)"/><ellipse class="cls-7" cx="165.03" cy="75.56" rx="0.36" ry="0.37" transform="translate(-6.86 17.27) rotate(-5.87)"/><ellipse class="cls-7" cx="162.57" cy="64.72" rx="0.36" ry="0.37" transform="translate(-5.77 16.96) rotate(-5.87)"/><ellipse class="cls-7" cx="165.41" cy="69.33" rx="0.36" ry="0.37" transform="translate(-6.22 17.28) rotate(-5.87)"/><ellipse class="cls-7" cx="169.06" cy="66.76" rx="0.36" ry="0.37" transform="translate(-5.94 17.64) rotate(-5.87)"/><ellipse class="cls-7" cx="167.01" cy="70.55" rx="0.36" ry="0.37" transform="translate(-6.34 17.45) rotate(-5.87)"/><ellipse class="cls-7" cx="169.85" cy="75.16" rx="0.36" ry="0.37" transform="translate(-6.79 17.76) rotate(-5.87)"/><ellipse class="cls-7" cx="139.82" cy="47.71" rx="0.36" ry="0.37" transform="translate(-4.15 14.55) rotate(-5.87)"/><ellipse class="cls-7" cx="147.92" cy="45.62" rx="0.36" ry="0.37" transform="translate(-3.89 15.36) rotate(-5.87)"/><ellipse class="cls-7" cx="135.53" cy="46.87" rx="0.36" ry="0.37" transform="translate(-4.08 14.1) rotate(-5.87)"/><ellipse class="cls-7" cx="138.37" cy="51.47" rx="0.36" ry="0.37" transform="translate(-4.54 14.42) rotate(-5.87)"/><ellipse class="cls-7" cx="145.38" cy="46.76" rx="0.36" ry="0.37" transform="translate(-4.02 15.11) rotate(-5.87)"/><ellipse class="cls-7" cx="143.69" cy="50.52" rx="0.36" ry="0.37" transform="translate(-4.41 14.96) rotate(-5.87)"/><ellipse class="cls-7" cx="146.53" cy="55.13" rx="0.36" ry="0.37" transform="translate(-4.87 15.27) rotate(-5.87)"/><ellipse class="cls-7" cx="133.48" cy="50.66" rx="0.36" ry="0.37" transform="translate(-4.48 13.91) rotate(-5.87)"/><ellipse class="cls-7" cx="136.32" cy="55.26" rx="0.36" ry="0.37" transform="translate(-4.94 14.23) rotate(-5.87)"/><ellipse class="cls-7" cx="143.68" cy="52.97" rx="0.36" ry="0.37" transform="translate(-4.66 14.97) rotate(-5.87)"/><ellipse class="cls-7" cx="150.86" cy="53.93" rx="0.36" ry="0.37" transform="translate(-4.72 15.71) rotate(-5.87)"/><ellipse class="cls-7" cx="148.4" cy="43.09" rx="0.36" ry="0.37" transform="translate(-3.63 15.4) rotate(-5.87)"/><ellipse class="cls-7" cx="151.24" cy="47.7" rx="0.36" ry="0.37" transform="translate(-4.08 15.71) rotate(-5.87)"/><ellipse class="cls-7" cx="162" cy="45.38" rx="0.36" ry="0.37" transform="translate(-3.79 16.8) rotate(-5.87)"/><ellipse class="cls-7" cx="157.71" cy="44.53" rx="0.36" ry="0.37" transform="translate(-3.73 16.36) rotate(-5.87)"/><ellipse class="cls-7" cx="160.55" cy="49.14" rx="0.36" ry="0.37" transform="translate(-4.18 16.67) rotate(-5.87)"/><ellipse class="cls-7" cx="165.87" cy="48.18" rx="0.36" ry="0.37" transform="translate(-4.06 17.21) rotate(-5.87)"/><ellipse class="cls-7" cx="155.66" cy="48.32" rx="0.36" ry="0.37" transform="translate(-4.12 16.17) rotate(-5.87)"/><ellipse class="cls-7" cx="158.5" cy="52.93" rx="0.36" ry="0.37" transform="translate(-4.58 16.48) rotate(-5.87)"/><ellipse class="cls-7" cx="165.86" cy="50.63" rx="0.36" ry="0.37" transform="translate(-4.31 17.22) rotate(-5.87)"/><ellipse class="cls-7" cx="138.71" cy="61.21" rx="0.36" ry="0.37" transform="translate(-5.53 14.5) rotate(-5.87)"/><ellipse class="cls-7" cx="139.25" cy="59.96" rx="0.36" ry="0.37" transform="translate(-5.4 14.55) rotate(-5.87)"/><ellipse class="cls-7" cx="144.81" cy="62.12" rx="0.36" ry="0.37" transform="translate(-5.59 15.13) rotate(-5.87)"/><ellipse class="cls-7" cx="141.43" cy="55.65" rx="0.36" ry="0.37" transform="translate(-4.95 14.75) rotate(-5.87)"/><ellipse class="cls-7" cx="144.27" cy="60.26" rx="0.36" ry="0.37" transform="translate(-5.41 15.07) rotate(-5.87)"/><ellipse class="cls-7" cx="142.58" cy="64.01" rx="0.36" ry="0.37" transform="translate(-5.8 14.91) rotate(-5.87)"/><ellipse class="cls-7" cx="145.42" cy="68.62" rx="0.36" ry="0.37" transform="translate(-6.25 15.23) rotate(-5.87)"/><ellipse class="cls-7" cx="142.57" cy="66.46" rx="0.36" ry="0.37" transform="translate(-6.05 14.93) rotate(-5.87)"/><ellipse class="cls-7" cx="142.2" cy="68.26" rx="0.36" ry="0.37" transform="translate(-6.23 14.9) rotate(-5.87)"/><ellipse class="cls-7" cx="139.74" cy="57.43" rx="0.36" ry="0.37" transform="translate(-5.14 14.59) rotate(-5.87)"/><ellipse class="cls-7" cx="142.58" cy="62.03" rx="0.36" ry="0.37" transform="translate(-5.6 14.9) rotate(-5.87)"/><ellipse class="cls-7" cx="146.23" cy="59.46" rx="0.36" ry="0.37" transform="translate(-5.31 15.26) rotate(-5.87)"/><ellipse class="cls-7" cx="144.18" cy="63.25" rx="0.36" ry="0.37" transform="translate(-5.71 15.07) rotate(-5.87)"/><ellipse class="cls-7" cx="147.02" cy="67.86" rx="0.36" ry="0.37" transform="translate(-6.17 15.39) rotate(-5.87)"/><ellipse class="cls-7" cx="140.19" cy="83.14" rx="0.36" ry="0.37" transform="translate(-7.77 14.77) rotate(-5.87)"/><ellipse class="cls-7" cx="132.09" cy="85.23" rx="0.36" ry="0.37" transform="translate(-8.02 13.95) rotate(-5.87)"/><ellipse class="cls-7" cx="144.48" cy="83.99" rx="0.36" ry="0.37" transform="translate(-7.83 15.21) rotate(-5.87)"/><ellipse class="cls-7" cx="141.64" cy="79.38" rx="0.36" ry="0.37" transform="translate(-7.37 14.9) rotate(-5.87)"/><ellipse class="cls-7" cx="134.63" cy="84.09" rx="0.36" ry="0.37" transform="translate(-7.89 14.21) rotate(-5.87)"/><ellipse class="cls-7" cx="136.32" cy="80.33" rx="0.36" ry="0.37" transform="translate(-7.5 14.36) rotate(-5.87)"/><ellipse class="cls-7" cx="133.48" cy="75.73" rx="0.36" ry="0.37" transform="translate(-7.04 14.05) rotate(-5.87)"/><ellipse class="cls-7" cx="146.53" cy="80.2" rx="0.36" ry="0.37" transform="translate(-7.43 15.4) rotate(-5.87)"/><ellipse class="cls-7" cx="143.69" cy="75.59" rx="0.36" ry="0.37" transform="translate(-6.98 15.09) rotate(-5.87)"/><ellipse class="cls-7" cx="136.33" cy="77.88" rx="0.36" ry="0.37" transform="translate(-7.25 14.35) rotate(-5.87)"/><ellipse class="cls-7" cx="129.15" cy="76.93" rx="0.36" ry="0.37" transform="translate(-7.19 13.61) rotate(-5.87)"/><ellipse class="cls-7" cx="131.61" cy="87.76" rx="0.36" ry="0.37" transform="translate(-8.28 13.92) rotate(-5.87)"/><ellipse class="cls-7" cx="128.77" cy="83.15" rx="0.36" ry="0.37" transform="translate(-7.83 13.6) rotate(-5.87)"/><ellipse class="cls-8" cx="118.01" cy="85.48" rx="0.36" ry="0.37" transform="translate(-8.12 12.51) rotate(-5.87)"/><ellipse class="cls-7" cx="122.3" cy="86.32" rx="0.36" ry="0.37" transform="translate(-8.19 12.96) rotate(-5.87)"/><ellipse class="cls-7" cx="119.46" cy="81.72" rx="0.36" ry="0.37" transform="translate(-7.73 12.64) rotate(-5.87)"/><ellipse class="cls-6" cx="114.14" cy="82.67" rx="0.36" ry="0.37" transform="translate(-7.85 12.1) rotate(-5.87)"/><ellipse class="cls-7" cx="124.35" cy="82.53" rx="0.36" ry="0.37" transform="translate(-7.79 13.15) rotate(-5.87)"/><ellipse class="cls-7" cx="121.51" cy="77.93" rx="0.36" ry="0.37" transform="translate(-7.33 12.83) rotate(-5.87)"/><ellipse class="cls-6" cx="114.15" cy="80.22" rx="0.36" ry="0.37" transform="translate(-7.6 12.09) rotate(-5.87)"/><ellipse class="cls-7" cx="141.3" cy="69.65" rx="0.36" ry="0.37" transform="translate(-6.38 14.81) rotate(-5.87)"/><ellipse class="cls-7" cx="140.76" cy="70.9" rx="0.36" ry="0.37" transform="translate(-6.51 14.76) rotate(-5.87)"/><ellipse class="cls-7" cx="135.2" cy="68.74" rx="0.36" ry="0.37" transform="translate(-6.32 14.18) rotate(-5.87)"/><ellipse class="cls-7" cx="138.58" cy="75.2" rx="0.36" ry="0.37" transform="translate(-6.96 14.56) rotate(-5.87)"/><ellipse class="cls-7" cx="135.74" cy="70.6" rx="0.36" ry="0.37" transform="translate(-6.51 14.25) rotate(-5.87)"/><ellipse class="cls-7" cx="137.43" cy="66.84" rx="0.36" ry="0.37" transform="translate(-6.11 14.4) rotate(-5.87)"/><ellipse class="cls-7" cx="134.59" cy="62.23" rx="0.36" ry="0.37" transform="translate(-5.66 14.09) rotate(-5.87)"/><ellipse class="cls-7" cx="137.44" cy="64.39" rx="0.36" ry="0.37" transform="translate(-5.86 14.39) rotate(-5.87)"/><ellipse class="cls-7" cx="137.81" cy="62.59" rx="0.36" ry="0.37" transform="translate(-5.68 14.42) rotate(-5.87)"/><ellipse class="cls-7" cx="140.27" cy="73.43" rx="0.36" ry="0.37" transform="translate(-6.77 14.73) rotate(-5.87)"/><ellipse class="cls-7" cx="137.43" cy="68.82" rx="0.36" ry="0.37" transform="translate(-6.32 14.41) rotate(-5.87)"/><ellipse class="cls-7" cx="133.78" cy="71.39" rx="0.36" ry="0.37" transform="translate(-6.6 14.05) rotate(-5.87)"/><ellipse class="cls-7" cx="135.83" cy="67.6" rx="0.36" ry="0.37" transform="translate(-6.2 14.24) rotate(-5.87)"/><ellipse class="cls-7" cx="132.99" cy="63" rx="0.36" ry="0.37" transform="translate(-5.74 13.93) rotate(-5.87)"/><polygon class="cls-6" points="80.72 138 80.57 102.53 267.69 103.05 267.58 138 80.72 138"/><path class="cls-5" d="M253.79,91.67s27.93,26.84-27.24,38.67c-42.48,9.1-104.24,9.1-135-15.83,0,0-10.93-12,7.25-20.53,0,0,9.47,15.2,67.05,17C202.16,112.16,241.44,108.67,253.79,91.67Z"/><path class="cls-5" d="M222.44,63.52S240.36,80.74,205,88.33c-27.25,5.84-66.87,5.84-86.63-10.16,0,0-7-7.68,4.65-13.17,0,0,6.07,9.75,43,10.93C189.33,76.67,214.52,74.43,222.44,63.52Z"/><path class="cls-5" d="M199.83,40.85s8.87,8.53-8.65,12.28c-13.5,2.89-33.12,2.89-42.9-5,0,0-3.47-3.8,2.3-6.52,0,0,3,4.83,21.3,5.41C183.43,47.36,195.91,46.25,199.83,40.85Z"/></svg>