<svg id="Layer_1" data-name="Layer 1" xmlns="http://www.w3.org/2000/svg" viewBox="0 0 400 400"><defs><style>.cls-1{fill:#e0dfdd;}.cls-2{fill:#865328;}.cls-3{fill:#f2e2b2;}.cls-4{fill:#f7eee0;}.cls-5{fill:#94623b;}.cls-6{fill:#e8d7bc;}.cls-7{fill:#b9803e;}</style></defs><title>Egg Nog Latte</title><path class="cls-1" d="M33.85,90.25V235.36c0,26,14.3,50.3,38,64.49l11.81,7.07a88.76,88.76,0,0,0,45.51,12.43h47.71a88.54,88.54,0,0,0,47.89-13.9L237,297.57c23-14.81,36.33-39.24,35.59-65.05l-4.1-142.26Z"/><path class="cls-2" d="M55.46,190.54H251v41.25c0,36.2-30,65.54-67.08,65.54H122.53c-37,0-67.08-29.35-67.08-65.54Z"/><rect class="cls-3" x="55.46" y="130.87" width="195.53" height="52.81"/><path class="cls-4" d="M246.86,126.2,234.35,78.87s-60.89,2-112.48-21.69c0,0-56.33-21-65.8,7.23s0,61.79,0,61.79Z"/><ellipse class="cls-5" cx="128.9" cy="226.38" rx="6.14" ry="5.66"/><path class="cls-5" d="M152.66,229.06a5.56,5.56,0,0,1-5.27-5.93,5.78,5.78,0,0,1,6.44-4.85,5.56,5.56,0,0,1,5.27,5.93A5.78,5.78,0,0,1,152.66,229.06Z"/><ellipse class="cls-5" cx="184.49" cy="213.47" rx="5.88" ry="5.42"/><ellipse class="cls-5" cx="167.21" cy="247.09" rx="5.88" ry="5.42"/><ellipse class="cls-5" cx="141.19" cy="267.15" rx="6.14" ry="5.66"/><path class="cls-1" d="M314,103c-11.1-2-28.63-1-34.34,5.53C265,125.39,264,196.44,264,196.44c16.63-30.22,66.39-32.3,70.12-53.07C339.26,114.74,322.63,104.6,314,103Zm-7.61,41.49a15.38,15.38,0,1,1,15.38-15.38A15.38,15.38,0,0,1,306.42,144.52Z"/><rect class="cls-6" x="55.46" y="165.27" width="195.53" height="26.4"/><circle class="cls-7" cx="81.19" cy="173.38" r="3"/><circle class="cls-7" cx="63.2" cy="186.98" r="3"/><circle class="cls-7" cx="197.68" cy="175.47" r="3"/><circle class="cls-7" cx="117.18" cy="178.47" r="3"/><circle class="cls-7" cx="147.33" cy="173.38" r="3"/><circle class="cls-7" cx="210.68" cy="183.98" r="3"/><circle class="cls-7" cx="230.18" cy="185.97" r="3"/><circle class="cls-7" cx="104.17" cy="183.98" r="3"/><circle class="cls-7" cx="172.21" cy="182.98" r="3"/><circle class="cls-7" cx="243.86" cy="175.47" r="3"/></svg>