<svg id="Layer_1" data-name="Layer 1" xmlns="http://www.w3.org/2000/svg" viewBox="0 0 400 400"><defs><style>.cls-1{fill:#e1e1df;}.cls-2{fill:#805026;}.cls-3{fill:#47301f;}.cls-4{fill:#95623b;}.cls-5{fill:#efe0bd;}.cls-6{fill:#bc803f;}</style></defs><title>Egg Nog Mocha</title><path class="cls-1" d="M34.4,101.29V185A82.68,82.68,0,0,0,53.12,237.4l42,51.24a82.68,82.68,0,0,0,64,30.29h39.27a82.68,82.68,0,0,0,65.23-31.87l39.89-51.21A82.68,82.68,0,0,0,320.9,185V101.29Z"/><rect class="cls-1" x="113.96" y="316.45" width="129.92" height="18.88" rx="2.12" ry="2.12"/><path class="cls-2" d="M84.94,140.25V196.3a56.32,56.32,0,0,0,12.19,35.08l27.33,34.31A53.27,53.27,0,0,0,166.1,286h25.57a53.31,53.31,0,0,0,42.47-21.34l26-34.29a56.36,56.36,0,0,0,11.36-34V140.25Z"/><path class="cls-3" d="M84.94,193.55v2.75a56.32,56.32,0,0,0,12.19,35.08l27.33,34.31A53.27,53.27,0,0,0,166.1,286h25.57a53.31,53.31,0,0,0,42.47-21.34l26-34.29a56.36,56.36,0,0,0,11.36-34v-2.77Z"/><circle class="cls-4" cx="154.06" cy="217.43" r="5.16"/><circle class="cls-4" cx="178.92" cy="221.98" r="5.16" transform="translate(-59.7 378.01) rotate(-84.31)"/><circle class="cls-4" cx="206.31" cy="212.27" r="5.16"/><circle class="cls-4" cx="191.16" cy="244.27" r="5.16"/><circle class="cls-4" cx="164.37" cy="254.58" r="5.16"/><path class="cls-1" d="M357,118.61c-11.1-2-28.63-1-34.34,5.53C308,141,306.93,212,306.93,212c16.63-30.22,66.39-32.3,70.12-53.07C382.19,130.31,365.56,120.17,357,118.61Zm-7.61,41.49a15.38,15.38,0,1,1,15.38-15.38A15.38,15.38,0,0,1,349.35,160.09Z"/><rect class="cls-5" x="84.9" y="177.91" width="186.53" height="15.17"/><circle class="cls-6" cx="91.62" cy="179.27" r="0.38"/><circle class="cls-6" cx="94.12" cy="184.14" r="0.38"/><circle class="cls-6" cx="102.75" cy="182.89" r="0.38"/><circle class="cls-6" cx="100.37" cy="185.67" r="0.38"/><circle class="cls-6" cx="89.75" cy="182.86" r="0.38"/><circle class="cls-6" cx="92.25" cy="187.74" r="0.38"/><circle class="cls-6" cx="97.5" cy="178.89" r="0.38"/><circle class="cls-6" cx="100" cy="183.77" r="0.38"/><circle class="cls-6" cx="97.87" cy="187.33" r="0.38"/><circle class="cls-6" cx="100.37" cy="192.21" r="0.38"/><circle class="cls-6" cx="87.24" cy="186.42" r="0.38"/><circle class="cls-6" cx="89.75" cy="191.3" r="0.38"/><circle class="cls-6" cx="97.62" cy="189.77" r="0.38"/><circle class="cls-6" cx="105" cy="191.46" r="0.38"/><circle class="cls-6" cx="103.5" cy="180.42" r="0.38"/><circle class="cls-6" cx="106" cy="185.3" r="0.38"/><circle class="cls-6" cx="114.91" cy="179.21" r="0.38"/><circle class="cls-6" cx="117.41" cy="184.09" r="0.38"/><circle class="cls-6" cx="126.04" cy="182.84" r="0.38"/><circle class="cls-6" cx="123.66" cy="185.62" r="0.38"/><circle class="cls-6" cx="113.04" cy="182.8" r="0.38"/><circle class="cls-6" cx="115.54" cy="187.68" r="0.38"/><circle class="cls-6" cx="120.79" cy="178.83" r="0.38"/><circle class="cls-6" cx="123.29" cy="183.71" r="0.38"/><circle class="cls-6" cx="121.16" cy="187.27" r="0.38"/><circle class="cls-6" cx="123.66" cy="192.15" r="0.38"/><circle class="cls-6" cx="110.54" cy="186.37" r="0.38"/><circle class="cls-6" cx="113.04" cy="191.24" r="0.38"/><circle class="cls-6" cx="120.91" cy="189.71" r="0.38"/><circle class="cls-6" cx="128.29" cy="191.4" r="0.38"/><circle class="cls-6" cx="126.79" cy="180.37" r="0.38"/><circle class="cls-6" cx="129.29" cy="185.24" r="0.38"/><circle class="cls-6" cx="138.41" cy="179.39" r="0.38"/><circle class="cls-6" cx="140.91" cy="184.27" r="0.38"/><circle class="cls-6" cx="149.54" cy="183.02" r="0.38"/><circle class="cls-6" cx="147.16" cy="185.8" r="0.38"/><circle class="cls-6" cx="136.54" cy="182.98" r="0.38"/><circle class="cls-6" cx="139.04" cy="187.86" r="0.38"/><circle class="cls-6" cx="144.29" cy="179.01" r="0.38"/><circle class="cls-6" cx="146.79" cy="183.89" r="0.38"/><circle class="cls-6" cx="144.66" cy="187.45" r="0.38"/><circle class="cls-6" cx="147.16" cy="192.33" r="0.38"/><circle class="cls-6" cx="134.04" cy="186.55" r="0.38"/><circle class="cls-6" cx="136.54" cy="191.42" r="0.38"/><circle class="cls-6" cx="144.41" cy="189.89" r="0.38"/><circle class="cls-6" cx="151.79" cy="191.58" r="0.38"/><circle class="cls-6" cx="150.29" cy="180.55" r="0.38"/><circle class="cls-6" cx="152.79" cy="185.42" r="0.38"/><circle class="cls-6" cx="160.08" cy="179.39" r="0.38"/><circle class="cls-6" cx="162.58" cy="184.27" r="0.38"/><circle class="cls-6" cx="171.21" cy="183.02" r="0.38"/><circle class="cls-6" cx="168.83" cy="185.8" r="0.38"/><circle class="cls-6" cx="158.2" cy="182.98" r="0.38"/><circle class="cls-6" cx="160.7" cy="187.86" r="0.38"/><circle class="cls-6" cx="165.96" cy="179.01" r="0.38"/><circle class="cls-6" cx="168.46" cy="183.89" r="0.38"/><circle class="cls-6" cx="166.33" cy="187.45" r="0.38"/><circle class="cls-6" cx="168.83" cy="192.33" r="0.38"/><circle class="cls-6" cx="155.7" cy="186.55" r="0.38"/><circle class="cls-6" cx="158.2" cy="191.42" r="0.38"/><circle class="cls-6" cx="166.08" cy="189.89" r="0.38"/><circle class="cls-6" cx="173.46" cy="191.58" r="0.38"/><circle class="cls-6" cx="171.96" cy="180.55" r="0.38"/><circle class="cls-6" cx="174.46" cy="185.42" r="0.38"/><circle class="cls-6" cx="181" cy="179.08" r="0.38"/><circle class="cls-6" cx="183.5" cy="183.96" r="0.38"/><circle class="cls-6" cx="192.13" cy="182.71" r="0.38"/><circle class="cls-6" cx="189.76" cy="185.49" r="0.38"/><circle class="cls-6" cx="179.13" cy="182.68" r="0.38"/><circle class="cls-6" cx="181.63" cy="187.55" r="0.38"/><circle class="cls-6" cx="186.88" cy="178.71" r="0.38"/><circle class="cls-6" cx="189.38" cy="183.59" r="0.38"/><circle class="cls-6" cx="187.26" cy="187.15" r="0.38"/><circle class="cls-6" cx="189.76" cy="192.02" r="0.38"/><circle class="cls-6" cx="176.63" cy="186.24" r="0.38"/><circle class="cls-6" cx="179.13" cy="191.12" r="0.38"/><circle class="cls-6" cx="187" cy="189.59" r="0.38"/><circle class="cls-6" cx="194.38" cy="191.27" r="0.38"/><circle class="cls-6" cx="192.88" cy="180.24" r="0.38"/><circle class="cls-6" cx="195.38" cy="185.12" r="0.38"/><circle class="cls-6" cx="201.31" cy="179.33" r="0.38"/><circle class="cls-6" cx="203.81" cy="184.21" r="0.38"/><circle class="cls-6" cx="212.44" cy="182.96" r="0.38"/><circle class="cls-6" cx="210.06" cy="185.74" r="0.38"/><circle class="cls-6" cx="199.44" cy="182.93" r="0.38"/><circle class="cls-6" cx="201.94" cy="187.8" r="0.38"/><circle class="cls-6" cx="207.19" cy="178.96" r="0.38"/><circle class="cls-6" cx="209.69" cy="183.83" r="0.38"/><circle class="cls-6" cx="207.56" cy="187.4" r="0.38"/><circle class="cls-6" cx="210.06" cy="192.27" r="0.38"/><circle class="cls-6" cx="196.93" cy="186.49" r="0.38"/><circle class="cls-6" cx="199.44" cy="191.37" r="0.38"/><circle class="cls-6" cx="207.31" cy="189.84" r="0.38"/><circle class="cls-6" cx="214.69" cy="191.52" r="0.38"/><circle class="cls-6" cx="213.19" cy="180.49" r="0.38"/><circle class="cls-6" cx="215.69" cy="185.37" r="0.38"/><circle class="cls-6" cx="220.82" cy="179.33" r="0.38"/><circle class="cls-6" cx="223.32" cy="184.21" r="0.38"/><circle class="cls-6" cx="231.94" cy="182.96" r="0.38"/><circle class="cls-6" cx="229.57" cy="185.74" r="0.38"/><circle class="cls-6" cx="218.94" cy="182.93" r="0.38"/><circle class="cls-6" cx="221.44" cy="187.8" r="0.38"/><circle class="cls-6" cx="226.69" cy="178.96" r="0.38"/><circle class="cls-6" cx="229.19" cy="183.83" r="0.38"/><circle class="cls-6" cx="227.07" cy="187.4" r="0.38"/><circle class="cls-6" cx="229.57" cy="192.27" r="0.38"/><circle class="cls-6" cx="216.44" cy="186.49" r="0.38"/><circle class="cls-6" cx="218.94" cy="191.37" r="0.38"/><circle class="cls-6" cx="226.82" cy="189.84" r="0.38"/><circle class="cls-6" cx="234.19" cy="191.52" r="0.38"/><circle class="cls-6" cx="232.69" cy="180.49" r="0.38"/><circle class="cls-6" cx="235.19" cy="185.37" r="0.38"/><circle class="cls-6" cx="242.41" cy="179.08" r="0.38"/><circle class="cls-6" cx="244.91" cy="183.96" r="0.38"/><circle class="cls-6" cx="253.54" cy="182.71" r="0.38"/><circle class="cls-6" cx="251.16" cy="185.49" r="0.38"/><circle class="cls-6" cx="240.54" cy="182.68" r="0.38"/><circle class="cls-6" cx="243.04" cy="187.55" r="0.38"/><circle class="cls-6" cx="248.29" cy="178.71" r="0.38"/><circle class="cls-6" cx="250.79" cy="183.58" r="0.38"/><circle class="cls-6" cx="248.66" cy="187.15" r="0.38"/><circle class="cls-6" cx="251.16" cy="192.02" r="0.38"/><circle class="cls-6" cx="238.04" cy="186.24" r="0.38"/><circle class="cls-6" cx="240.54" cy="191.12" r="0.38"/><circle class="cls-6" cx="248.41" cy="189.59" r="0.38"/><circle class="cls-6" cx="255.79" cy="191.27" r="0.38"/><circle class="cls-6" cx="254.29" cy="180.24" r="0.38"/><circle class="cls-6" cx="256.79" cy="185.12" r="0.38"/><circle class="cls-6" cx="263.75" cy="179.46" r="0.38"/><circle class="cls-6" cx="266.25" cy="184.33" r="0.38"/><circle class="cls-6" cx="261.87" cy="183.05" r="0.38"/><circle class="cls-6" cx="264.37" cy="187.93" r="0.38"/><circle class="cls-6" cx="269.62" cy="179.08" r="0.38"/><circle class="cls-6" cx="270" cy="187.52" r="0.38"/><circle class="cls-6" cx="259.37" cy="186.62" r="0.38"/><circle class="cls-6" cx="261.87" cy="191.49" r="0.38"/><circle class="cls-6" cx="269.75" cy="189.96" r="0.38"/></svg>