<svg id="Layer_1" data-name="Layer 1" xmlns="http://www.w3.org/2000/svg" viewBox="0 0 400 400"><defs><style>.cls-1{fill:#e0dfdd;}.cls-2{fill:#865328;}.cls-3{fill:#f2e2b2;}.cls-4{fill:#f7eee0;}.cls-5{fill:#94623b;}.cls-6{fill:#b4d9a3;}</style></defs><title>Green tea Latte</title><path class="cls-1" d="M34.35,96.66V241.78c0,26,14.3,50.3,38,64.49l11.81,7.07a88.76,88.76,0,0,0,45.51,12.43h47.71a88.54,88.54,0,0,0,47.89-13.9L237.48,304c23-14.81,36.33-39.24,35.59-65.05L269,96.66Z"/><path class="cls-2" d="M56,197H251.49v41.25c0,36.2-30,65.54-67.08,65.54H123C86,303.75,56,274.41,56,238.21Z"/><rect class="cls-3" x="55.96" y="137.29" width="195.53" height="52.81"/><path class="cls-4" d="M247.36,132.62,234.85,85.29S174,87.26,122.37,63.6c0,0-56.33-21-65.8,7.23s0,61.79,0,61.79Z"/><ellipse class="cls-5" cx="129.41" cy="232.8" rx="6.14" ry="5.66"/><path class="cls-5" d="M153.16,235.48a5.56,5.56,0,0,1-5.27-5.93,5.78,5.78,0,0,1,6.44-4.85,5.56,5.56,0,0,1,5.27,5.93A5.78,5.78,0,0,1,153.16,235.48Z"/><ellipse class="cls-5" cx="185" cy="219.89" rx="5.88" ry="5.42"/><ellipse class="cls-5" cx="167.71" cy="253.51" rx="5.88" ry="5.42"/><ellipse class="cls-5" cx="141.7" cy="273.57" rx="6.14" ry="5.66"/><path class="cls-1" d="M314.54,109.45c-11.1-2-28.63-1-34.34,5.53-14.66,16.83-15.7,87.88-15.7,87.88,16.63-30.22,66.39-32.3,70.12-53.07C339.77,121.15,323.14,111,314.54,109.45Zm-7.61,41.49a15.38,15.38,0,1,1,15.38-15.38A15.38,15.38,0,0,1,306.93,150.94Z"/><rect class="cls-6" x="55.96" y="169.69" width="195.53" height="26.4"/></svg>