<svg id="Layer_1" data-name="Layer 1" xmlns="http://www.w3.org/2000/svg" viewBox="0 0 400 400"><defs><style>.cls-1{fill:#e0dfdd;}.cls-2{fill:#865328;}.cls-3{fill:#f2e2b2;}.cls-4{fill:#94623b;}.cls-5{fill:#b8703e;}.cls-6{fill:#fff;}.cls-7{fill:#fffbf2;}.cls-8{fill:#ef6666;}</style></defs><title>Hazelnut Latte</title><path class="cls-1" d="M33.23,89.29V234.4c0,26,14.3,50.3,38,64.49L83,306a88.76,88.76,0,0,0,45.51,12.43h47.71a88.54,88.54,0,0,0,47.89-13.9l12.21-7.88c23-14.81,36.33-39.24,35.59-65.05l-4.1-142.26Z"/><path class="cls-2" d="M54.84,189.59H250.37v41.25c0,36.2-30,65.54-67.08,65.54H121.92c-37,0-67.08-29.35-67.08-65.54Z"/><rect class="cls-3" x="54.84" y="129.91" width="195.53" height="52.81"/><ellipse class="cls-4" cx="128.29" cy="225.43" rx="6.14" ry="5.66"/><path class="cls-4" d="M152,228.11a5.56,5.56,0,0,1-5.27-5.93,5.78,5.78,0,0,1,6.44-4.85,5.56,5.56,0,0,1,5.27,5.93A5.78,5.78,0,0,1,152,228.11Z"/><ellipse class="cls-4" cx="183.88" cy="212.52" rx="5.88" ry="5.42"/><ellipse class="cls-4" cx="166.59" cy="246.14" rx="5.88" ry="5.42"/><ellipse class="cls-4" cx="140.58" cy="266.2" rx="6.14" ry="5.66"/><path class="cls-1" d="M313.43,102.08c-11.1-2-28.63-1-34.34,5.53-14.66,16.83-15.7,87.88-15.7,87.88,16.63-30.22,66.39-32.3,70.12-53.07C338.65,113.78,322,103.65,313.43,102.08Zm-7.61,41.49a15.38,15.38,0,1,1,15.38-15.38A15.38,15.38,0,0,1,305.81,143.57Z"/><rect class="cls-5" x="54.84" y="162.32" width="195.53" height="26.4"/><path class="cls-6" d="M150.42,3.5s6.53,18.42-2,18.42-40.95,3-45,20c0,0-23.08,9.69-21.59,22.35,0,0-26-2.82-26.16,26.22,0,0,11,32.47,54.37,32.47h96.29S251,100.39,251.1,91.05c0,0-.12-20.76-30-25.3,0,0,4.16-22.75-22.52-25.75C198.63,40,176.59,8.67,150.42,3.5Z"/><path class="cls-7" d="M209.63,51.67S230.29,83.33,190,90.33,99.57,91,92.65,71c0,0-6.66-22,8.46-22,0,0,9.23,20.67,45.85,19.33C173.1,67.38,200.75,68.67,209.63,51.67Z"/><path class="cls-7" d="M177.47,36.6s9,13.8-8.53,16.85-39.43.29-42.45-8.43c0,0-2.9-9.59,3.69-9.59,0,0,4,9,20,8.43C161.55,43.45,173.6,44,177.47,36.6Z"/><circle class="cls-5" cx="112.79" cy="46.96" r="0.38"/><circle class="cls-5" cx="121.42" cy="45.71" r="0.38"/><circle class="cls-5" cx="108.42" cy="45.67" r="0.38"/><circle class="cls-5" cx="110.92" cy="50.55" r="0.38"/><circle class="cls-5" cx="118.67" cy="46.58" r="0.38"/><circle class="cls-5" cx="116.54" cy="50.14" r="0.38"/><circle class="cls-5" cx="119.04" cy="55.02" r="0.38"/><circle class="cls-5" cx="105.92" cy="49.24" r="0.38"/><circle class="cls-5" cx="108.42" cy="54.11" r="0.38"/><circle class="cls-5" cx="116.29" cy="52.58" r="0.38"/><circle class="cls-5" cx="123.67" cy="54.27" r="0.38"/><circle class="cls-5" cx="122.17" cy="43.24" r="0.38"/><circle class="cls-5" cx="124.67" cy="48.11" r="0.38"/><circle class="cls-5" cx="136.08" cy="46.9" r="0.38"/><circle class="cls-5" cx="131.71" cy="45.62" r="0.38"/><circle class="cls-5" cx="134.21" cy="50.49" r="0.38"/><circle class="cls-5" cx="139.84" cy="50.09" r="0.38"/><circle class="cls-5" cx="129.21" cy="49.18" r="0.38"/><circle class="cls-5" cx="131.71" cy="54.06" r="0.38"/><circle class="cls-5" cx="139.59" cy="52.53" r="0.38"/><circle class="cls-5" cx="110.32" cy="60.27" r="0.38"/><circle class="cls-5" cx="111.01" cy="59.08" r="0.38"/><circle class="cls-5" cx="116.57" cy="61.8" r="0.38"/><circle class="cls-5" cx="113.69" cy="55.02" r="0.38"/><circle class="cls-5" cx="116.19" cy="59.9" r="0.38"/><circle class="cls-5" cx="114.07" cy="63.46" r="0.38"/><circle class="cls-5" cx="116.57" cy="68.34" r="0.38"/><circle class="cls-5" cx="113.82" cy="65.9" r="0.38"/><circle class="cls-5" cx="113.26" cy="67.65" r="0.38"/><circle class="cls-5" cx="111.76" cy="56.61" r="0.38"/><circle class="cls-5" cx="114.26" cy="61.49" r="0.38"/><circle class="cls-5" cx="118.31" cy="59.3" r="0.38"/><circle class="cls-5" cx="115.81" cy="62.86" r="0.38"/><circle class="cls-5" cx="118.31" cy="67.74" r="0.38"/><circle class="cls-5" cx="156.98" cy="64.64" r="0.38"/><circle class="cls-5" cx="158.23" cy="73.26" r="0.38"/><circle class="cls-5" cx="158.26" cy="60.26" r="0.38"/><circle class="cls-5" cx="153.38" cy="62.76" r="0.38"/><circle class="cls-5" cx="157.35" cy="70.51" r="0.38"/><circle class="cls-5" cx="153.79" cy="68.39" r="0.38"/><circle class="cls-5" cx="148.91" cy="70.89" r="0.38"/><circle class="cls-5" cx="154.7" cy="57.76" r="0.38"/><circle class="cls-5" cx="149.82" cy="60.26" r="0.38"/><circle class="cls-5" cx="151.35" cy="68.14" r="0.38"/><circle class="cls-5" cx="149.66" cy="75.51" r="0.38"/><circle class="cls-5" cx="160.7" cy="74.01" r="0.38"/><circle class="cls-5" cx="155.82" cy="76.51" r="0.38"/><circle class="cls-5" cx="157.03" cy="87.93" r="0.38"/><circle class="cls-5" cx="158.32" cy="83.55" r="0.38"/><circle class="cls-5" cx="153.44" cy="86.05" r="0.38"/><circle class="cls-6" cx="153.85" cy="91.68" r="0.38"/><circle class="cls-5" cx="154.75" cy="81.05" r="0.38"/><circle class="cls-5" cx="149.88" cy="83.55" r="0.38"/><circle class="cls-5" cx="151.41" cy="91.43" r="0.38"/><circle class="cls-5" cx="143.66" cy="62.16" r="0.38"/><circle class="cls-5" cx="144.85" cy="62.85" r="0.38"/><circle class="cls-5" cx="142.13" cy="68.41" r="0.38"/><circle class="cls-5" cx="148.91" cy="65.54" r="0.38"/><circle class="cls-5" cx="144.04" cy="68.04" r="0.38"/><circle class="cls-5" cx="140.47" cy="65.91" r="0.38"/><circle class="cls-5" cx="135.6" cy="68.41" r="0.38"/><circle class="cls-5" cx="138.04" cy="65.66" r="0.38"/><circle class="cls-5" cx="136.29" cy="65.1" r="0.38"/><circle class="cls-5" cx="147.32" cy="63.6" r="0.38"/><circle class="cls-5" cx="142.44" cy="66.1" r="0.38"/><circle class="cls-5" cx="144.63" cy="70.15" r="0.38"/><circle class="cls-5" cx="141.07" cy="67.65" r="0.38"/><circle class="cls-5" cx="136.19" cy="70.15" r="0.38"/><circle class="cls-5" cx="184.03" cy="43.6" r="0.38"/><circle class="cls-5" cx="185.28" cy="52.23" r="0.38"/><circle class="cls-5" cx="185.31" cy="39.22" r="0.38"/><circle class="cls-5" cx="180.43" cy="41.72" r="0.38"/><circle class="cls-5" cx="184.4" cy="49.47" r="0.38"/><circle class="cls-5" cx="180.84" cy="47.35" r="0.38"/><circle class="cls-5" cx="175.96" cy="49.85" r="0.38"/><circle class="cls-5" cx="181.75" cy="36.72" r="0.38"/><circle class="cls-5" cx="176.87" cy="39.22" r="0.38"/><circle class="cls-5" cx="178.4" cy="47.1" r="0.38"/><circle class="cls-5" cx="176.71" cy="54.48" r="0.38"/><circle class="cls-5" cx="187.75" cy="52.98" r="0.38"/><circle class="cls-5" cx="182.87" cy="55.48" r="0.38"/><circle class="cls-5" cx="184.08" cy="66.89" r="0.38"/><circle class="cls-5" cx="185.37" cy="62.52" r="0.38"/><circle class="cls-5" cx="180.49" cy="65.02" r="0.38"/><circle class="cls-5" cx="180.89" cy="70.64" r="0.38"/><circle class="cls-5" cx="181.8" cy="60.01" r="0.38"/><circle class="cls-5" cx="176.93" cy="62.52" r="0.38"/><circle class="cls-5" cx="178.46" cy="70.39" r="0.38"/><circle class="cls-5" cx="170.71" cy="41.12" r="0.38"/><circle class="cls-5" cx="171.9" cy="41.81" r="0.38"/><circle class="cls-5" cx="169.18" cy="47.38" r="0.38"/><circle class="cls-5" cx="175.96" cy="44.5" r="0.38"/><circle class="cls-5" cx="171.09" cy="47" r="0.38"/><circle class="cls-5" cx="167.52" cy="44.88" r="0.38"/><circle class="cls-5" cx="162.65" cy="47.38" r="0.38"/><circle class="cls-5" cx="165.09" cy="44.63" r="0.38"/><circle class="cls-5" cx="163.34" cy="44.06" r="0.38"/><circle class="cls-5" cx="174.37" cy="42.56" r="0.38"/><circle class="cls-5" cx="169.49" cy="45.06" r="0.38"/><circle class="cls-5" cx="171.68" cy="49.12" r="0.38"/><circle class="cls-5" cx="168.12" cy="46.62" r="0.38"/><circle class="cls-5" cx="163.24" cy="49.12" r="0.38"/><circle class="cls-5" cx="191.3" cy="75.75" r="0.38" transform="translate(-6.5 19.09) rotate(-5.62)"/><circle class="cls-5" cx="199.76" cy="73.66" r="0.38" transform="translate(-6.25 19.91) rotate(-5.62)"/><circle class="cls-5" cx="186.82" cy="74.9" r="0.38" transform="matrix(1, -0.1, 0.1, 1, -6.44, 18.65)"/><circle class="cls-5" cx="189.78" cy="79.51" r="0.38" transform="matrix(1, -0.1, 0.1, 1, -6.87, 18.96)"/><circle class="cls-5" cx="197.11" cy="74.8" r="0.38" transform="translate(-6.38 19.66) rotate(-5.62)"/><circle class="cls-5" cx="195.34" cy="78.56" r="0.38" transform="matrix(1, -0.1, 0.1, 1, -6.75, 19.5)"/><circle class="cls-5" cx="198.31" cy="83.17" r="0.38" transform="translate(-7.19 19.81) rotate(-5.62)"/><circle class="cls-5" cx="184.68" cy="78.7" r="0.38" transform="translate(-6.82 18.46) rotate(-5.62)"/><circle class="cls-5" cx="187.64" cy="83.3" r="0.38" transform="translate(-7.25 18.77) rotate(-5.62)"/><circle class="cls-5" cx="195.33" cy="81.01" r="0.38" transform="matrix(1, -0.1, 0.1, 1, -6.99, 19.51)"/><circle class="cls-5" cx="202.84" cy="81.97" r="0.38" transform="translate(-7.05 20.25) rotate(-5.62)"/><circle class="cls-5" cx="200.26" cy="71.13" r="0.38" transform="translate(-6 19.95) rotate(-5.62)"/><circle class="cls-5" cx="203.23" cy="75.74" r="0.38" transform="translate(-6.44 20.26) rotate(-5.62)"/><circle class="cls-5" cx="214.47" cy="73.42" r="0.38" transform="translate(-6.16 21.35) rotate(-5.62)"/><circle class="cls-5" cx="209.99" cy="72.57" r="0.38" transform="translate(-6.1 20.91) rotate(-5.62)"/><circle class="cls-5" cx="212.96" cy="77.18" r="0.38" transform="matrix(1, -0.1, 0.1, 1, -6.53, 21.22)"/><circle class="cls-6" cx="218.52" cy="76.22" r="0.38" transform="translate(-6.41 21.76) rotate(-5.62)"/><circle class="cls-5" cx="207.85" cy="76.36" r="0.38" transform="translate(-6.48 20.71) rotate(-5.62)"/><circle class="cls-5" cx="210.82" cy="80.97" r="0.38" transform="translate(-6.91 21.03) rotate(-5.62)"/><circle class="cls-6" cx="218.51" cy="78.67" r="0.38" transform="translate(-6.65 21.77) rotate(-5.62)"/><circle class="cls-5" cx="190.14" cy="89.25" r="0.38" transform="translate(-7.82 19.04) rotate(-5.62)"/><circle class="cls-5" cx="190.7" cy="88" r="0.38" transform="translate(-7.7 19.09) rotate(-5.62)"/><circle class="cls-5" cx="196.51" cy="90.16" r="0.38" transform="translate(-7.88 19.67) rotate(-5.62)"/><circle class="cls-5" cx="192.98" cy="83.69" r="0.38" transform="translate(-7.27 19.29) rotate(-5.62)"/><circle class="cls-5" cx="195.95" cy="88.3" r="0.38" transform="matrix(1, -0.1, 0.1, 1, -7.7, 19.61)"/><circle class="cls-6" cx="194.18" cy="92.05" r="0.38" transform="translate(-8.08 19.45) rotate(-5.62)"/><circle class="cls-6" cx="197.15" cy="96.66" r="0.38" transform="translate(-8.52 19.76) rotate(-5.62)"/><circle class="cls-6" cx="194.17" cy="94.5" r="0.38" transform="translate(-8.32 19.46) rotate(-5.62)"/><circle class="cls-8" cx="193.78" cy="96.3" r="0.38" transform="translate(-8.5 19.43) rotate(-5.62)"/><circle class="cls-5" cx="191.21" cy="85.47" r="0.38" transform="translate(-7.45 19.13) rotate(-5.62)"/><circle class="cls-5" cx="194.18" cy="90.07" r="0.38" transform="translate(-7.89 19.44) rotate(-5.62)"/><circle class="cls-5" cx="198" cy="87.5" r="0.38" transform="matrix(1, -0.1, 0.1, 1, -7.61, 19.8)"/><circle class="cls-5" cx="195.86" cy="91.29" r="0.38" transform="translate(-8 19.61) rotate(-5.62)"/><circle class="cls-8" cx="198.82" cy="95.9" r="0.38" transform="translate(-8.43 19.92) rotate(-5.62)"/><circle class="cls-5" cx="141.34" cy="43.01" r="0.38" transform="translate(-3.53 14.04) rotate(-5.62)"/><circle class="cls-5" cx="149.8" cy="40.92" r="0.38" transform="translate(-3.29 14.86) rotate(-5.62)"/><circle class="cls-5" cx="136.86" cy="42.16" r="0.38" transform="translate(-3.47 13.6) rotate(-5.62)"/><circle class="cls-5" cx="139.82" cy="46.77" r="0.38" transform="translate(-3.91 13.91) rotate(-5.62)"/><circle class="cls-5" cx="147.15" cy="42.06" r="0.38" transform="translate(-3.41 14.61) rotate(-5.62)"/><circle class="cls-5" cx="145.38" cy="45.82" r="0.38" transform="translate(-3.79 14.45) rotate(-5.62)"/><circle class="cls-5" cx="148.35" cy="50.43" r="0.38" transform="translate(-4.22 14.76) rotate(-5.62)"/><circle class="cls-5" cx="134.72" cy="45.95" r="0.38" transform="translate(-3.85 13.41) rotate(-5.62)"/><circle class="cls-5" cx="137.68" cy="50.56" r="0.38" transform="matrix(1, -0.1, 0.1, 1, -4.29, 13.72)"/><circle class="cls-5" cx="145.37" cy="48.27" r="0.38" transform="translate(-4.03 14.46) rotate(-5.62)"/><circle class="cls-5" cx="152.88" cy="49.23" r="0.38" transform="translate(-4.08 15.2) rotate(-5.62)"/><circle class="cls-5" cx="150.3" cy="38.39" r="0.38" transform="translate(-3.04 14.9) rotate(-5.62)"/><circle class="cls-5" cx="153.27" cy="43" r="0.38" transform="matrix(1, -0.1, 0.1, 1, -3.47, 15.21)"/><circle class="cls-5" cx="164.51" cy="40.68" r="0.38" transform="translate(-3.19 16.3) rotate(-5.62)"/><circle class="cls-5" cx="160.03" cy="39.83" r="0.38" transform="translate(-3.13 15.86) rotate(-5.62)"/><circle class="cls-5" cx="163" cy="44.44" r="0.38" transform="matrix(1, -0.1, 0.1, 1, -3.57, 16.17)"/><circle class="cls-5" cx="168.56" cy="43.48" r="0.38" transform="translate(-3.45 16.71) rotate(-5.62)"/><circle class="cls-5" cx="157.89" cy="43.62" r="0.38" transform="translate(-3.51 15.67) rotate(-5.62)"/><circle class="cls-5" cx="160.86" cy="48.23" r="0.38" transform="translate(-3.95 15.98) rotate(-5.62)"/><circle class="cls-5" cx="168.55" cy="45.93" r="0.38" transform="matrix(1, -0.1, 0.1, 1, -3.69, 16.72)"/><circle class="cls-5" cx="140.18" cy="56.51" r="0.38" transform="translate(-4.86 13.99) rotate(-5.62)"/><circle class="cls-5" cx="140.75" cy="55.26" r="0.38" transform="translate(-4.73 14.04) rotate(-5.62)"/><circle class="cls-5" cx="146.55" cy="57.42" r="0.38" transform="matrix(1, -0.1, 0.1, 1, -4.92, 14.62)"/><circle class="cls-5" cx="143.02" cy="50.95" r="0.38" transform="translate(-4.3 14.25) rotate(-5.62)"/><circle class="cls-5" cx="145.99" cy="55.56" r="0.38" transform="translate(-4.74 14.56) rotate(-5.62)"/><circle class="cls-5" cx="144.22" cy="59.31" r="0.38" transform="matrix(1, -0.1, 0.1, 1, -5.11, 14.4)"/><circle class="cls-5" cx="147.19" cy="63.92" r="0.38" transform="translate(-5.55 14.72) rotate(-5.62)"/><circle class="cls-5" cx="144.21" cy="61.76" r="0.38" transform="matrix(1, -0.1, 0.1, 1, -5.35, 14.41)"/><circle class="cls-5" cx="143.82" cy="63.56" r="0.38" transform="translate(-5.53 14.38) rotate(-5.62)"/><circle class="cls-5" cx="141.25" cy="52.72" r="0.38" transform="translate(-4.48 14.08) rotate(-5.62)"/><circle class="cls-5" cx="144.22" cy="57.33" r="0.38" transform="translate(-4.92 14.39) rotate(-5.62)"/><circle class="cls-5" cx="148.04" cy="54.76" r="0.38" transform="translate(-4.65 14.76) rotate(-5.62)"/><circle class="cls-5" cx="145.9" cy="58.55" r="0.38" transform="translate(-5.03 14.56) rotate(-5.62)"/><circle class="cls-5" cx="148.86" cy="63.16" r="0.38" transform="matrix(1, -0.1, 0.1, 1, -5.47, 14.88)"/><circle class="cls-5" cx="117.48" cy="35.71" r="0.38" transform="translate(-2.93 11.67) rotate(-5.62)"/><circle class="cls-5" cx="125.94" cy="33.62" r="0.38" transform="translate(-2.69 12.49) rotate(-5.62)"/><circle class="cls-5" cx="113" cy="34.87" r="0.38" transform="translate(-2.87 11.23) rotate(-5.62)"/><circle class="cls-5" cx="115.97" cy="39.47" r="0.38" transform="matrix(1, -0.1, 0.1, 1, -3.31, 11.54)"/><circle class="cls-5" cx="123.29" cy="34.76" r="0.38" transform="translate(-2.81 12.24) rotate(-5.62)"/><circle class="cls-5" cx="121.53" cy="38.52" r="0.38" transform="translate(-3.19 12.08) rotate(-5.62)"/><circle class="cls-5" cx="124.49" cy="43.13" r="0.38" transform="translate(-3.62 12.39) rotate(-5.62)"/><circle class="cls-5" cx="110.86" cy="38.66" r="0.38" transform="translate(-3.25 11.04) rotate(-5.62)"/><circle class="cls-5" cx="113.83" cy="43.26" r="0.38" transform="translate(-3.69 11.35) rotate(-5.62)"/><circle class="cls-5" cx="121.52" cy="40.97" r="0.38" transform="translate(-3.43 12.09) rotate(-5.62)"/><circle class="cls-5" cx="129.02" cy="41.93" r="0.38" transform="translate(-3.48 12.83) rotate(-5.62)"/><circle class="cls-5" cx="126.45" cy="31.09" r="0.38" transform="translate(-2.44 12.53) rotate(-5.62)"/><circle class="cls-5" cx="129.42" cy="35.7" r="0.38" transform="translate(-2.87 12.84) rotate(-5.62)"/><circle class="cls-5" cx="140.66" cy="33.38" r="0.38" transform="translate(-2.59 13.93) rotate(-5.62)"/><circle class="cls-5" cx="136.18" cy="32.53" r="0.38" transform="translate(-2.53 13.49) rotate(-5.62)"/><circle class="cls-5" cx="139.14" cy="37.14" r="0.38" transform="translate(-2.97 13.8) rotate(-5.62)"/><circle class="cls-5" cx="144.7" cy="36.18" r="0.38" transform="translate(-2.85 14.34) rotate(-5.62)"/><circle class="cls-5" cx="134.04" cy="36.32" r="0.38" transform="translate(-2.91 13.3) rotate(-5.62)"/><circle class="cls-5" cx="137" cy="40.93" r="0.38" transform="matrix(1, -0.1, 0.1, 1, -3.35, 13.61)"/><circle class="cls-5" cx="144.69" cy="38.63" r="0.38" transform="translate(-3.09 14.35) rotate(-5.62)"/><circle class="cls-5" cx="116.32" cy="49.21" r="0.38" transform="translate(-4.26 11.62) rotate(-5.62)"/><circle class="cls-5" cx="116.89" cy="47.96" r="0.38" transform="translate(-4.13 11.67) rotate(-5.62)"/><circle class="cls-5" cx="122.69" cy="50.12" r="0.38" transform="translate(-4.32 12.25) rotate(-5.62)"/><circle class="cls-5" cx="119.17" cy="43.65" r="0.38" transform="translate(-3.7 11.88) rotate(-5.62)"/><circle class="cls-5" cx="122.13" cy="48.26" r="0.38" transform="translate(-4.14 12.19) rotate(-5.62)"/><circle class="cls-5" cx="120.37" cy="52.01" r="0.38" transform="translate(-4.51 12.03) rotate(-5.62)"/><circle class="cls-5" cx="123.33" cy="56.62" r="0.38" transform="translate(-4.95 12.35) rotate(-5.62)"/><circle class="cls-5" cx="120.36" cy="54.46" r="0.38" transform="translate(-4.75 12.04) rotate(-5.62)"/><circle class="cls-5" cx="119.97" cy="56.26" r="0.38" transform="translate(-4.93 12.01) rotate(-5.62)"/><circle class="cls-5" cx="117.4" cy="45.43" r="0.38" transform="translate(-3.88 11.71) rotate(-5.62)"/><circle class="cls-5" cx="120.36" cy="50.03" r="0.38" transform="translate(-4.32 12.02) rotate(-5.62)"/><circle class="cls-5" cx="124.18" cy="47.46" r="0.38" transform="translate(-4.05 12.38) rotate(-5.62)"/><circle class="cls-5" cx="122.04" cy="51.25" r="0.38" transform="translate(-4.43 12.19) rotate(-5.62)"/><circle class="cls-5" cx="125.01" cy="55.86" r="0.38" transform="translate(-4.87 12.51) rotate(-5.62)"/><circle class="cls-5" cx="117.87" cy="71.14" r="0.38" transform="translate(-6.4 11.88) rotate(-5.62)"/><circle class="cls-5" cx="109.41" cy="73.23" r="0.38" transform="translate(-6.64 11.06) rotate(-5.62)"/><circle class="cls-5" cx="122.35" cy="71.99" r="0.38" transform="translate(-6.46 12.32) rotate(-5.62)"/><circle class="cls-5" cx="119.38" cy="67.38" r="0.38" transform="translate(-6.02 12.01) rotate(-5.62)"/><circle class="cls-5" cx="112.06" cy="72.09" r="0.38" transform="translate(-6.52 11.32) rotate(-5.62)"/><circle class="cls-5" cx="113.82" cy="68.33" r="0.38" transform="translate(-6.14 11.47) rotate(-5.62)"/><circle class="cls-5" cx="110.86" cy="63.73" r="0.38" transform="translate(-5.71 11.16) rotate(-5.62)"/><circle class="cls-5" cx="124.49" cy="68.2" r="0.38" transform="translate(-6.08 12.51) rotate(-5.62)"/><circle class="cls-5" cx="121.52" cy="63.59" r="0.38" transform="matrix(1, -0.1, 0.1, 1, -5.64, 12.2)"/><circle class="cls-5" cx="113.83" cy="65.88" r="0.38" transform="translate(-5.9 11.46) rotate(-5.62)"/><circle class="cls-5" cx="106.33" cy="64.93" r="0.38" transform="translate(-5.85 10.72) rotate(-5.62)"/><circle class="cls-5" cx="108.9" cy="75.76" r="0.38" transform="translate(-6.89 11.02) rotate(-5.62)"/><circle class="cls-5" cx="105.94" cy="71.15" r="0.38" transform="matrix(1, -0.1, 0.1, 1, -6.46, 10.71)"/><circle class="cls-8" cx="94.69" cy="73.48" r="0.38" transform="translate(-6.74 9.62) rotate(-5.62)"/><circle class="cls-5" cx="99.17" cy="74.32" r="0.38" transform="translate(-6.8 10.07) rotate(-5.62)"/><circle class="cls-5" cx="96.21" cy="69.72" r="0.38" transform="matrix(1, -0.1, 0.1, 1, -6.36, 9.75)"/><circle class="cls-6" cx="90.65" cy="70.67" r="0.38" transform="translate(-6.48 9.21) rotate(-5.62)"/><circle class="cls-5" cx="101.31" cy="70.53" r="0.38" transform="translate(-6.42 10.26) rotate(-5.62)"/><circle class="cls-5" cx="98.35" cy="65.93" r="0.38" transform="translate(-5.98 9.94) rotate(-5.62)"/><circle class="cls-6" cx="90.66" cy="68.22" r="0.38" transform="matrix(1, -0.1, 0.1, 1, -6.24, 9.2)"/><circle class="cls-5" cx="119.03" cy="57.65" r="0.38" transform="translate(-5.07 11.93) rotate(-5.62)"/><circle class="cls-5" cx="118.46" cy="58.9" r="0.38" transform="translate(-5.2 11.88) rotate(-5.62)"/><circle class="cls-5" cx="112.66" cy="56.74" r="0.38" transform="matrix(1, -0.1, 0.1, 1, -5.01, 11.3)"/><circle class="cls-5" cx="116.18" cy="63.2" r="0.38" transform="translate(-5.63 11.68) rotate(-5.62)"/><circle class="cls-5" cx="113.22" cy="58.6" r="0.38" transform="translate(-5.19 11.36) rotate(-5.62)"/><circle class="cls-5" cx="114.98" cy="54.84" r="0.38" transform="matrix(1, -0.1, 0.1, 1, -4.82, 11.52)"/><circle class="cls-5" cx="112.02" cy="50.23" r="0.38" transform="translate(-4.38 11.21) rotate(-5.62)"/><circle class="cls-5" cx="114.99" cy="52.39" r="0.38" transform="matrix(1, -0.1, 0.1, 1, -4.58, 11.51)"/><circle class="cls-5" cx="115.38" cy="50.59" r="0.38" transform="translate(-4.4 11.54) rotate(-5.62)"/><circle class="cls-5" cx="117.96" cy="61.43" r="0.38" transform="translate(-5.45 11.84) rotate(-5.62)"/><circle class="cls-5" cx="114.99" cy="56.82" r="0.38" transform="translate(-5.01 11.53) rotate(-5.62)"/><circle class="cls-5" cx="111.17" cy="59.39" r="0.38" transform="translate(-5.28 11.17) rotate(-5.62)"/><circle class="cls-5" cx="113.31" cy="55.6" r="0.38" transform="translate(-4.9 11.36) rotate(-5.62)"/><circle class="cls-5" cx="110.34" cy="51" r="0.38" transform="matrix(1, -0.1, 0.1, 1, -4.46, 11.05)"/><polygon class="cls-6" points="55.73 126 55.57 90.53 251.1 91.05 250.99 126 55.73 126"/><path class="cls-7" d="M236.57,79.67s30,31.67-28.47,38.67S76.54,119,66.48,99c0,0-9.69-22,12.3-22,0,0,13.42,20.67,66.67,19.33C183.45,95.38,223.67,96.67,236.57,79.67Z"/></svg>