<svg id="Layer_1" data-name="Layer 1" xmlns="http://www.w3.org/2000/svg" viewBox="0 0 400 400"><defs><style>.cls-1{fill:#e1e1df;}.cls-2{fill:#805026;}.cls-3{fill:#47301f;}.cls-4{fill:#95623b;}.cls-5{fill:#7f5b37;}.cls-6{fill:#fff;}.cls-7{fill:#ef6666;}</style></defs><title>Hazelnut mocha</title><path class="cls-1" d="M35.89,100.41v83.72a82.68,82.68,0,0,0,18.72,52.39l42,51.24a82.68,82.68,0,0,0,64,30.29h39.27A82.68,82.68,0,0,0,265,286.19L304.93,235a82.68,82.68,0,0,0,17.45-50.81V100.41Z"/><rect class="cls-1" x="115.44" y="315.57" width="129.92" height="18.88" rx="2.12" ry="2.12"/><path class="cls-2" d="M86.42,139.37v56.05A56.32,56.32,0,0,0,98.61,230.5l27.33,34.31a53.27,53.27,0,0,0,41.64,20.28h25.57a53.31,53.31,0,0,0,42.47-21.34l26-34.29a56.36,56.36,0,0,0,11.36-34V139.37Z"/><path class="cls-3" d="M86.42,192.68v2.75A56.32,56.32,0,0,0,98.61,230.5l27.33,34.31a53.27,53.27,0,0,0,41.64,20.28h25.57a53.31,53.31,0,0,0,42.47-21.34l26-34.29a56.36,56.36,0,0,0,11.36-34v-2.77Z"/><circle class="cls-4" cx="155.54" cy="216.55" r="5.16"/><circle class="cls-4" cx="180.4" cy="221.1" r="5.16" transform="translate(-57.5 378.69) rotate(-84.31)"/><circle class="cls-4" cx="207.79" cy="211.4" r="5.16"/><circle class="cls-4" cx="192.64" cy="243.39" r="5.16"/><circle class="cls-4" cx="165.85" cy="253.71" r="5.16"/><path class="cls-1" d="M358.45,117.73c-11.1-2-28.63-1-34.34,5.53-14.66,16.83-15.7,87.88-15.7,87.88,16.63-30.22,66.39-32.3,70.12-53.07C383.67,129.43,367,119.3,358.45,117.73Zm-7.61,41.49a15.38,15.38,0,1,1,15.38-15.38A15.38,15.38,0,0,1,350.84,159.22Z"/><rect class="cls-5" x="86.14" y="177.42" width="186.53" height="15.17"/><circle class="cls-6" cx="152.42" cy="332.67" r="0.38"/><circle class="cls-7" cx="149.92" cy="336.24" r="0.38"/><circle class="cls-6" cx="152.42" cy="341.11" r="0.38"/><circle class="cls-6" cx="170.45" cy="318.09" r="0.38" transform="translate(-30.32 18.21) rotate(-5.62)"/></svg>