<svg id="Layer_1" data-name="Layer 1" xmlns="http://www.w3.org/2000/svg" viewBox="0 0 400 400"><defs><style>.cls-1{fill:#e1e1df;}.cls-2{fill:#805026;}.cls-3{fill:#47301f;}.cls-4{fill:#95623b;}.cls-5{fill:#ce773c;}</style></defs><title>Orange Mocha</title><path class="cls-1" d="M34,99.35v83.72a82.68,82.68,0,0,0,18.72,52.39l42,51.24a82.68,82.68,0,0,0,64,30.29h39.27a82.68,82.68,0,0,0,65.23-31.87L303,233.91A82.68,82.68,0,0,0,320.5,183.1V99.35Z"/><rect class="cls-1" x="113.56" y="314.51" width="129.92" height="18.88" rx="2.12" ry="2.12"/><path class="cls-2" d="M84.54,138.31v56.05a56.32,56.32,0,0,0,12.19,35.08l27.33,34.31A53.27,53.27,0,0,0,165.7,284h25.57a53.31,53.31,0,0,0,42.47-21.34l26-34.29a56.36,56.36,0,0,0,11.36-34V138.31Z"/><path class="cls-3" d="M84.54,191.61v2.75a56.32,56.32,0,0,0,12.19,35.08l27.33,34.31A53.27,53.27,0,0,0,165.7,284h25.57a53.31,53.31,0,0,0,42.47-21.34l26-34.29a56.36,56.36,0,0,0,11.36-34v-2.77Z"/><circle class="cls-4" cx="153.66" cy="215.49" r="5.16"/><circle class="cls-4" cx="178.52" cy="220.04" r="5.16" transform="translate(-58.14 375.86) rotate(-84.31)"/><circle class="cls-4" cx="205.91" cy="210.34" r="5.16"/><circle class="cls-4" cx="190.76" cy="242.33" r="5.16"/><circle class="cls-4" cx="163.97" cy="252.64" r="5.16"/><path class="cls-1" d="M356.57,116.67c-11.1-2-28.63-1-34.34,5.53-14.66,16.83-15.7,87.88-15.7,87.88,16.63-30.22,66.39-32.3,70.12-53.07C381.79,128.37,365.16,118.24,356.57,116.67ZM349,158.15a15.38,15.38,0,1,1,15.38-15.38A15.38,15.38,0,0,1,349,158.15Z"/><rect class="cls-5" x="85.26" y="174.83" width="186.53" height="15.17"/></svg>