<svg id="Layer_1" data-name="Layer 1" xmlns="http://www.w3.org/2000/svg" viewBox="0 0 400 400"><defs><style>.cls-1{fill:#e1e1df;}.cls-2{fill:#805026;}.cls-3{fill:#47301f;}.cls-4{fill:#95623b;}.cls-5{fill:#bc803f;}.cls-6{fill:none;}</style></defs><title>Pecan Caramel Mocha</title><path class="cls-1" d="M31.76,102.16v83.72a82.68,82.68,0,0,0,18.72,52.39l42,51.24a82.68,82.68,0,0,0,64,30.29h39.27a82.68,82.68,0,0,0,65.23-31.87l39.89-51.21a82.68,82.68,0,0,0,17.45-50.81V102.16Z"/><rect class="cls-1" x="111.31" y="317.32" width="129.92" height="18.88" rx="2.12" ry="2.12"/><path class="cls-2" d="M82.29,141.13v56.05a56.32,56.32,0,0,0,12.19,35.08l27.33,34.31a53.27,53.27,0,0,0,41.64,20.28H189a53.31,53.31,0,0,0,42.47-21.34l26-34.29a56.36,56.36,0,0,0,11.36-34V141.13Z"/><path class="cls-3" d="M82.29,194.43v2.75a56.32,56.32,0,0,0,12.19,35.08l27.33,34.31a53.27,53.27,0,0,0,41.64,20.28H189a53.31,53.31,0,0,0,42.47-21.34l26-34.29a56.36,56.36,0,0,0,11.36-34v-2.77Z"/><circle class="cls-4" cx="151.41" cy="218.31" r="5.16"/><circle class="cls-4" cx="176.27" cy="222.85" r="5.16" transform="translate(-62.96 376.16) rotate(-84.31)"/><circle class="cls-4" cx="203.66" cy="213.15" r="5.16"/><circle class="cls-4" cx="188.51" cy="245.14" r="5.16"/><circle class="cls-4" cx="161.72" cy="255.46" r="5.16"/><path class="cls-1" d="M354.32,119.48c-11.1-2-28.63-1-34.34,5.53-14.66,16.83-15.7,87.88-15.7,87.88,16.63-30.22,66.39-32.3,70.12-53.07C379.54,131.18,362.91,121,354.32,119.48ZM346.71,161a15.38,15.38,0,1,1,15.38-15.38A15.38,15.38,0,0,1,346.71,161Z"/><rect class="cls-5" x="82.93" y="177.99" width="186.53" height="15.17"/><rect class="cls-6" y="-420" width="33.67" height="820"/></svg>