<svg id="Layer_1" data-name="Layer 1" xmlns="http://www.w3.org/2000/svg" viewBox="0 0 400 400"><defs><style>.cls-1{fill:#e0dfdd;}.cls-2{fill:#865328;}.cls-3{fill:#f2e2b2;}.cls-4{fill:#f7eee0;}.cls-5{fill:#94623b;}.cls-6{fill:#b9803e;}</style></defs><title>Pecan Caramel Latte</title><path class="cls-1" d="M33.81,89.07V234.18c0,26,14.3,50.3,38,64.49l11.81,7.07a88.76,88.76,0,0,0,45.51,12.43h47.71a88.54,88.54,0,0,0,47.89-13.9l12.21-7.88c23-14.81,36.33-39.24,35.59-65.05l-4.1-142.26Z"/><path class="cls-2" d="M55.42,189.37H250.95v41.25c0,36.2-30,65.54-67.08,65.54H122.5c-37,0-67.08-29.35-67.08-65.54Z"/><rect class="cls-3" x="55.42" y="129.69" width="195.53" height="52.81"/><path class="cls-4" d="M246.82,125,234.31,77.7s-60.89,2-112.48-21.69c0,0-56.33-21-65.8,7.23S56,125,56,125Z"/><ellipse class="cls-5" cx="128.87" cy="225.21" rx="6.14" ry="5.66"/><path class="cls-5" d="M152.62,227.89a5.56,5.56,0,0,1-5.27-5.93,5.78,5.78,0,0,1,6.44-4.85,5.56,5.56,0,0,1,5.27,5.93A5.78,5.78,0,0,1,152.62,227.89Z"/><ellipse class="cls-5" cx="184.46" cy="212.3" rx="5.88" ry="5.42"/><ellipse class="cls-5" cx="167.17" cy="245.92" rx="5.88" ry="5.42"/><ellipse class="cls-5" cx="141.15" cy="265.98" rx="6.14" ry="5.66"/><path class="cls-1" d="M314,101.86c-11.1-2-28.63-1-34.34,5.53C265,124.22,264,195.27,264,195.27,280.6,165,330.35,163,334.08,142.2,339.23,113.56,322.6,103.43,314,101.86Zm-7.61,41.49A15.38,15.38,0,1,1,321.77,128,15.38,15.38,0,0,1,306.39,143.35Z"/><rect class="cls-6" x="55.42" y="162.1" width="195.53" height="26.4"/></svg>