<svg id="Layer_1" data-name="Layer 1" xmlns="http://www.w3.org/2000/svg" viewBox="0 0 400 400"><defs><style>.cls-1{fill:#e1e1df;}.cls-2{fill:#805026;}.cls-3{fill:#47301f;}.cls-4{fill:#95623b;}.cls-5{fill:#fc6565;}.cls-6{fill:#fff;}.cls-7{fill:#fffbf2;}.cls-8{fill:#ef6666;}</style></defs><title>Pepperment Mocha</title><path class="cls-1" d="M31.61,99.47V183.2a82.68,82.68,0,0,0,18.72,52.39l42,51.24a82.68,82.68,0,0,0,64,30.29h39.27a82.68,82.68,0,0,0,65.23-31.87L300.65,234a82.68,82.68,0,0,0,17.45-50.81V99.47Z"/><rect class="cls-1" x="111.17" y="314.63" width="129.92" height="18.88" rx="2.12" ry="2.12"/><path class="cls-2" d="M82.15,138.44v56.05a56.32,56.32,0,0,0,12.19,35.08l27.33,34.31a53.27,53.27,0,0,0,41.64,20.28h25.57a53.31,53.31,0,0,0,42.47-21.34l26-34.29a56.36,56.36,0,0,0,11.36-34V138.44Z"/><path class="cls-3" d="M82.15,191.74v2.75a56.32,56.32,0,0,0,12.19,35.08l27.33,34.31a53.27,53.27,0,0,0,41.64,20.28h25.57a53.31,53.31,0,0,0,42.47-21.34l26-34.29a56.36,56.36,0,0,0,11.36-34v-2.77Z"/><circle class="cls-4" cx="151.26" cy="215.62" r="5.16"/><circle class="cls-4" cx="176.13" cy="220.16" r="5.16" transform="translate(-60.42 373.59) rotate(-84.31)"/><circle class="cls-4" cx="203.52" cy="210.46" r="5.16"/><circle class="cls-4" cx="188.37" cy="242.45" r="5.16"/><circle class="cls-4" cx="161.58" cy="252.77" r="5.16"/><path class="cls-1" d="M354.18,116.79c-11.1-2-28.63-1-34.34,5.53-14.66,16.83-15.7,87.88-15.7,87.88,16.63-30.22,66.39-32.3,70.12-53.07C379.4,128.5,362.77,118.36,354.18,116.79Zm-7.61,41.49a15.38,15.38,0,1,1,15.38-15.38A15.38,15.38,0,0,1,346.56,158.28Z"/><rect class="cls-5" x="82.15" y="178.81" width="186.53" height="15.17"/><rect class="cls-6" x="102.14" y="178.81" width="25.95" height="15.17"/><rect class="cls-6" x="148.25" y="178.81" width="25.95" height="15.17"/><rect class="cls-6" x="197.77" y="178.81" width="25.95" height="15.17"/><rect class="cls-6" x="243.88" y="178.81" width="25.24" height="15.17"/><path class="cls-6" d="M173.06,13.5s6.23,18.42-1.95,18.42-39.07,3-43,20c0,0-22,9.69-20.6,22.35,0,0-24.81-2.82-25,26.22,0,0,10.5,32.47,51.87,32.47h91.87s42.69-22.61,42.81-31.95c0,0-.11-20.76-28.58-25.3,0,0,4-22.75-21.48-25.75C219.06,50,198,18.67,173.06,13.5Z"/><path class="cls-7" d="M229.55,61.67s19.71,31.67-18.68,38.67S124.55,101,117.95,81c0,0-6.36-22,8.07-22,0,0,8.8,20.67,43.75,19.33C194.7,77.38,221.09,78.67,229.55,61.67Z"/><path class="cls-7" d="M198.87,46.6s8.59,13.8-8.14,16.85-37.62.29-40.5-8.43c0,0-2.77-9.59,3.52-9.59,0,0,3.84,9,19.07,8.43C183.68,53.45,195.18,54,198.87,46.6Z"/><ellipse class="cls-8" cx="137.16" cy="56.96" rx="0.36" ry="0.38"/><ellipse class="cls-8" cx="145.4" cy="55.71" rx="0.36" ry="0.38"/><ellipse class="cls-6" cx="132.99" cy="55.67" rx="0.36" ry="0.38"/><ellipse class="cls-8" cx="135.38" cy="60.55" rx="0.36" ry="0.38"/><ellipse class="cls-8" cx="142.77" cy="56.58" rx="0.36" ry="0.38"/><ellipse class="cls-6" cx="140.74" cy="60.14" rx="0.36" ry="0.38"/><ellipse class="cls-8" cx="143.13" cy="65.02" rx="0.36" ry="0.38"/><ellipse class="cls-8" cx="130.6" cy="59.24" rx="0.36" ry="0.38"/><ellipse class="cls-6" cx="132.99" cy="64.11" rx="0.36" ry="0.38"/><ellipse class="cls-6" cx="140.5" cy="62.58" rx="0.36" ry="0.38"/><ellipse class="cls-8" cx="147.54" cy="64.27" rx="0.36" ry="0.38"/><ellipse class="cls-6" cx="146.11" cy="53.24" rx="0.36" ry="0.38"/><ellipse class="cls-8" cx="148.5" cy="58.11" rx="0.36" ry="0.38"/><ellipse class="cls-8" cx="159.39" cy="56.9" rx="0.36" ry="0.38"/><ellipse class="cls-8" cx="155.21" cy="55.62" rx="0.36" ry="0.38"/><ellipse class="cls-6" cx="157.6" cy="60.49" rx="0.36" ry="0.38"/><ellipse class="cls-6" cx="162.97" cy="60.09" rx="0.36" ry="0.38"/><ellipse class="cls-8" cx="152.83" cy="59.18" rx="0.36" ry="0.38"/><ellipse class="cls-6" cx="155.21" cy="64.06" rx="0.36" ry="0.38"/><ellipse class="cls-6" cx="162.73" cy="62.53" rx="0.36" ry="0.38"/><ellipse class="cls-6" cx="134.8" cy="70.27" rx="0.36" ry="0.38"/><ellipse class="cls-8" cx="135.46" cy="69.08" rx="0.36" ry="0.38"/><ellipse class="cls-6" cx="140.77" cy="71.8" rx="0.36" ry="0.38"/><ellipse class="cls-6" cx="138.02" cy="65.02" rx="0.36" ry="0.38"/><ellipse class="cls-6" cx="140.41" cy="69.9" rx="0.36" ry="0.38"/><ellipse class="cls-6" cx="138.38" cy="73.46" rx="0.36" ry="0.38"/><ellipse class="cls-6" cx="140.77" cy="78.34" rx="0.36" ry="0.38"/><ellipse class="cls-6" cx="138.14" cy="75.9" rx="0.36" ry="0.38"/><ellipse class="cls-8" cx="137.61" cy="77.65" rx="0.36" ry="0.38"/><ellipse class="cls-8" cx="136.18" cy="66.61" rx="0.36" ry="0.38"/><ellipse class="cls-8" cx="138.56" cy="71.49" rx="0.36" ry="0.38"/><ellipse class="cls-8" cx="142.43" cy="69.3" rx="0.36" ry="0.38"/><ellipse class="cls-8" cx="140.04" cy="72.86" rx="0.36" ry="0.38"/><ellipse class="cls-8" cx="142.43" cy="77.74" rx="0.36" ry="0.38"/><ellipse class="cls-8" cx="179.32" cy="74.64" rx="0.36" ry="0.38"/><ellipse class="cls-8" cx="180.51" cy="83.26" rx="0.36" ry="0.38"/><ellipse class="cls-6" cx="180.55" cy="70.26" rx="0.36" ry="0.38"/><ellipse class="cls-8" cx="175.89" cy="72.76" rx="0.36" ry="0.38"/><ellipse class="cls-8" cx="179.68" cy="80.51" rx="0.36" ry="0.38"/><ellipse class="cls-6" cx="176.28" cy="78.39" rx="0.36" ry="0.38"/><ellipse class="cls-8" cx="171.63" cy="80.89" rx="0.36" ry="0.38"/><ellipse class="cls-8" cx="177.15" cy="67.76" rx="0.36" ry="0.38"/><ellipse class="cls-6" cx="172.49" cy="70.26" rx="0.36" ry="0.38"/><ellipse class="cls-6" cx="173.95" cy="78.14" rx="0.36" ry="0.38"/><ellipse class="cls-8" cx="172.34" cy="85.51" rx="0.36" ry="0.38"/><ellipse class="cls-6" cx="182.87" cy="84.01" rx="0.36" ry="0.38"/><ellipse class="cls-8" cx="178.22" cy="86.51" rx="0.36" ry="0.38"/><ellipse class="cls-8" cx="179.38" cy="97.93" rx="0.36" ry="0.38"/><ellipse class="cls-8" cx="180.6" cy="93.55" rx="0.36" ry="0.38"/><ellipse class="cls-6" cx="175.95" cy="96.05" rx="0.36" ry="0.38"/><ellipse class="cls-6" cx="176.33" cy="101.68" rx="0.36" ry="0.38"/><ellipse class="cls-8" cx="177.2" cy="91.05" rx="0.36" ry="0.38"/><ellipse class="cls-6" cx="172.55" cy="93.55" rx="0.36" ry="0.38"/><ellipse class="cls-6" cx="174.01" cy="101.43" rx="0.36" ry="0.38"/><ellipse class="cls-6" cx="166.62" cy="72.16" rx="0.36" ry="0.38"/><ellipse class="cls-8" cx="167.75" cy="72.85" rx="0.36" ry="0.38"/><ellipse class="cls-6" cx="165.16" cy="78.41" rx="0.36" ry="0.38"/><ellipse class="cls-6" cx="171.63" cy="75.54" rx="0.36" ry="0.38"/><ellipse class="cls-6" cx="166.98" cy="78.04" rx="0.36" ry="0.38"/><ellipse class="cls-6" cx="163.58" cy="75.91" rx="0.36" ry="0.38"/><ellipse class="cls-6" cx="158.92" cy="78.41" rx="0.36" ry="0.38"/><ellipse class="cls-6" cx="161.25" cy="75.66" rx="0.36" ry="0.38"/><ellipse class="cls-8" cx="159.58" cy="75.1" rx="0.36" ry="0.38"/><ellipse class="cls-8" cx="170.11" cy="73.6" rx="0.36" ry="0.38"/><ellipse class="cls-8" cx="165.46" cy="76.1" rx="0.36" ry="0.38"/><ellipse class="cls-8" cx="167.54" cy="80.15" rx="0.36" ry="0.38"/><ellipse class="cls-8" cx="164.14" cy="77.65" rx="0.36" ry="0.38"/><ellipse class="cls-8" cx="159.49" cy="80.15" rx="0.36" ry="0.38"/><ellipse class="cls-8" cx="205.13" cy="53.6" rx="0.36" ry="0.38"/><ellipse class="cls-8" cx="206.32" cy="62.23" rx="0.36" ry="0.38"/><ellipse class="cls-6" cx="206.35" cy="49.22" rx="0.36" ry="0.38"/><ellipse class="cls-8" cx="201.7" cy="51.72" rx="0.36" ry="0.38"/><ellipse class="cls-8" cx="205.49" cy="59.47" rx="0.36" ry="0.38"/><ellipse class="cls-6" cx="202.09" cy="57.35" rx="0.36" ry="0.38"/><ellipse class="cls-8" cx="197.43" cy="59.85" rx="0.36" ry="0.38"/><ellipse class="cls-8" cx="202.95" cy="46.72" rx="0.36" ry="0.38"/><ellipse class="cls-6" cx="198.3" cy="49.22" rx="0.36" ry="0.38"/><ellipse class="cls-6" cx="199.76" cy="57.1" rx="0.36" ry="0.38"/><ellipse class="cls-8" cx="198.15" cy="64.48" rx="0.36" ry="0.38"/><ellipse class="cls-6" cx="208.68" cy="62.98" rx="0.36" ry="0.38"/><ellipse class="cls-8" cx="204.03" cy="65.48" rx="0.36" ry="0.38"/><ellipse class="cls-8" cx="205.18" cy="76.89" rx="0.36" ry="0.38"/><ellipse class="cls-8" cx="206.41" cy="72.52" rx="0.36" ry="0.38"/><ellipse class="cls-6" cx="201.75" cy="75.02" rx="0.36" ry="0.38"/><ellipse class="cls-6" cx="202.14" cy="80.64" rx="0.36" ry="0.38"/><ellipse class="cls-8" cx="203.01" cy="70.01" rx="0.36" ry="0.38"/><ellipse class="cls-6" cx="198.35" cy="72.52" rx="0.36" ry="0.38"/><ellipse class="cls-6" cx="199.81" cy="80.39" rx="0.36" ry="0.38"/><ellipse class="cls-6" cx="192.42" cy="51.12" rx="0.36" ry="0.38"/><ellipse class="cls-8" cx="193.56" cy="51.81" rx="0.36" ry="0.38"/><ellipse class="cls-6" cx="190.96" cy="57.38" rx="0.36" ry="0.38"/><ellipse class="cls-6" cx="197.43" cy="54.5" rx="0.36" ry="0.38"/><ellipse class="cls-6" cx="192.78" cy="57" rx="0.36" ry="0.38"/><ellipse class="cls-6" cx="189.38" cy="54.88" rx="0.36" ry="0.38"/><ellipse class="cls-6" cx="184.73" cy="57.38" rx="0.36" ry="0.38"/><ellipse class="cls-6" cx="187.06" cy="54.63" rx="0.36" ry="0.38"/><ellipse class="cls-8" cx="185.39" cy="54.06" rx="0.36" ry="0.38"/><ellipse class="cls-8" cx="195.91" cy="52.56" rx="0.36" ry="0.38"/><ellipse class="cls-8" cx="191.26" cy="55.06" rx="0.36" ry="0.38"/><ellipse class="cls-8" cx="193.35" cy="59.12" rx="0.36" ry="0.38"/><ellipse class="cls-8" cx="189.95" cy="56.62" rx="0.36" ry="0.38"/><ellipse class="cls-8" cx="185.3" cy="59.12" rx="0.36" ry="0.38"/><ellipse class="cls-8" cx="212.06" cy="85.75" rx="0.36" ry="0.37" transform="translate(-7.68 22.2) rotate(-5.89)"/><ellipse class="cls-8" cx="220.14" cy="83.66" rx="0.36" ry="0.37" transform="translate(-7.42 23.02) rotate(-5.89)"/><ellipse class="cls-6" cx="207.79" cy="84.9" rx="0.36" ry="0.37" transform="translate(-7.61 21.76) rotate(-5.89)"/><ellipse class="cls-8" cx="210.62" cy="89.51" rx="0.36" ry="0.37" transform="translate(-8.07 22.07) rotate(-5.89)"/><ellipse class="cls-8" cx="217.61" cy="84.8" rx="0.36" ry="0.37" transform="translate(-7.55 22.76) rotate(-5.89)"/><ellipse class="cls-6" cx="215.92" cy="88.56" rx="0.36" ry="0.37" transform="translate(-7.94 22.61) rotate(-5.89)"/><ellipse class="cls-8" cx="218.75" cy="93.17" rx="0.36" ry="0.37" transform="translate(-8.4 22.93) rotate(-5.89)"/><ellipse class="cls-8" cx="205.75" cy="88.7" rx="0.36" ry="0.37" transform="translate(-8.01 21.57) rotate(-5.89)"/><ellipse class="cls-6" cx="208.58" cy="93.3" rx="0.36" ry="0.37" transform="translate(-8.47 21.88) rotate(-5.89)"/><ellipse class="cls-6" cx="215.91" cy="91.01" rx="0.36" ry="0.37" transform="translate(-8.2 22.62) rotate(-5.89)"/><ellipse class="cls-8" cx="223.07" cy="91.97" rx="0.36" ry="0.37" transform="translate(-8.26 23.36) rotate(-5.89)"/><ellipse class="cls-6" cx="220.62" cy="81.13" rx="0.36" ry="0.37" transform="translate(-7.16 23.05) rotate(-5.89)"/><ellipse class="cls-8" cx="223.45" cy="85.74" rx="0.36" ry="0.37" transform="translate(-7.62 23.37) rotate(-5.89)"/><ellipse class="cls-8" cx="234.17" cy="83.42" rx="0.36" ry="0.37" transform="translate(-7.32 24.46) rotate(-5.89)"/><ellipse class="cls-8" cx="229.9" cy="82.57" rx="0.36" ry="0.37" transform="translate(-7.26 24.01) rotate(-5.89)"/><ellipse class="cls-6" cx="232.73" cy="87.18" rx="0.36" ry="0.37" transform="translate(-7.71 24.33) rotate(-5.89)"/><ellipse class="cls-6" cx="238.03" cy="86.22" rx="0.36" ry="0.37" transform="translate(-7.59 24.87) rotate(-5.89)"/><ellipse class="cls-8" cx="227.86" cy="86.36" rx="0.36" ry="0.37" transform="translate(-7.66 23.82) rotate(-5.89)"/><ellipse class="cls-6" cx="230.69" cy="90.97" rx="0.36" ry="0.37" transform="translate(-8.11 24.14) rotate(-5.89)"/><ellipse class="cls-6" cx="238.02" cy="88.67" rx="0.36" ry="0.37" transform="translate(-7.84 24.88) rotate(-5.89)"/><ellipse class="cls-6" cx="210.96" cy="99.25" rx="0.36" ry="0.37" transform="translate(-9.07 22.16) rotate(-5.89)"/><ellipse class="cls-8" cx="211.5" cy="98" rx="0.36" ry="0.37" transform="translate(-8.94 22.21) rotate(-5.89)"/><ellipse class="cls-6" cx="217.04" cy="100.16" rx="0.36" ry="0.37" transform="translate(-9.13 22.79) rotate(-5.89)"/><ellipse class="cls-6" cx="213.67" cy="93.69" rx="0.36" ry="0.37" transform="translate(-8.48 22.41) rotate(-5.89)"/><ellipse class="cls-6" cx="216.5" cy="98.3" rx="0.36" ry="0.37" transform="translate(-8.94 22.72) rotate(-5.89)"/><ellipse class="cls-6" cx="214.82" cy="102.05" rx="0.36" ry="0.37" transform="translate(-9.33 22.57) rotate(-5.89)"/><ellipse class="cls-6" cx="217.65" cy="106.66" rx="0.36" ry="0.37" transform="translate(-9.79 22.88) rotate(-5.89)"/><ellipse class="cls-6" cx="214.81" cy="104.5" rx="0.36" ry="0.37" transform="translate(-9.58 22.58) rotate(-5.89)"/><ellipse class="cls-8" cx="214.44" cy="106.3" rx="0.36" ry="0.37" transform="translate(-9.77 22.55) rotate(-5.89)"/><ellipse class="cls-8" cx="211.98" cy="95.47" rx="0.36" ry="0.37" transform="translate(-8.67 22.24) rotate(-5.89)"/><ellipse class="cls-8" cx="214.81" cy="100.07" rx="0.36" ry="0.37" transform="translate(-9.13 22.56) rotate(-5.89)"/><ellipse class="cls-8" cx="218.46" cy="97.5" rx="0.36" ry="0.37" transform="translate(-8.85 22.92) rotate(-5.89)"/><ellipse class="cls-8" cx="216.41" cy="101.29" rx="0.36" ry="0.37" transform="translate(-9.25 22.73) rotate(-5.89)"/><ellipse class="cls-8" cx="219.24" cy="105.9" rx="0.36" ry="0.37" transform="translate(-9.7 23.04) rotate(-5.89)"/><ellipse class="cls-8" cx="164.4" cy="53.01" rx="0.36" ry="0.37" transform="translate(-4.57 17.14) rotate(-5.89)"/><ellipse class="cls-8" cx="172.47" cy="50.92" rx="0.36" ry="0.37" transform="translate(-4.31 17.96) rotate(-5.89)"/><ellipse class="cls-6" cx="160.12" cy="52.16" rx="0.36" ry="0.37" transform="matrix(0.99, -0.1, 0.1, 0.99, -4.51, 16.7)"/><ellipse class="cls-8" cx="162.95" cy="56.77" rx="0.36" ry="0.37" transform="translate(-4.96 17.01) rotate(-5.89)"/><ellipse class="cls-8" cx="169.94" cy="52.06" rx="0.36" ry="0.37" transform="translate(-4.44 17.7) rotate(-5.89)"/><ellipse class="cls-6" cx="168.26" cy="55.82" rx="0.36" ry="0.37" transform="matrix(0.99, -0.1, 0.1, 0.99, -4.84, 17.55)"/><ellipse class="cls-8" cx="171.09" cy="60.43" rx="0.36" ry="0.37" transform="translate(-5.29 17.87) rotate(-5.89)"/><ellipse class="cls-8" cx="158.08" cy="55.95" rx="0.36" ry="0.37" transform="translate(-4.91 16.51) rotate(-5.89)"/><ellipse class="cls-6" cx="160.91" cy="60.56" rx="0.36" ry="0.37" transform="translate(-5.36 16.82) rotate(-5.89)"/><ellipse class="cls-6" cx="168.25" cy="58.27" rx="0.36" ry="0.37" transform="matrix(0.99, -0.1, 0.1, 0.99, -5.09, 17.56)"/><ellipse class="cls-8" cx="175.41" cy="59.23" rx="0.36" ry="0.37" transform="translate(-5.15 18.3) rotate(-5.89)"/><ellipse class="cls-6" cx="172.95" cy="48.39" rx="0.36" ry="0.37" transform="translate(-4.05 17.99) rotate(-5.89)"/><ellipse class="cls-8" cx="175.78" cy="53" rx="0.36" ry="0.37" transform="translate(-4.51 18.31) rotate(-5.89)"/><ellipse class="cls-8" cx="186.51" cy="50.68" rx="0.36" ry="0.37" transform="translate(-4.21 19.4) rotate(-5.89)"/><ellipse class="cls-8" cx="182.23" cy="49.83" rx="0.36" ry="0.37" transform="translate(-4.15 18.95) rotate(-5.89)"/><ellipse class="cls-6" cx="185.06" cy="54.44" rx="0.36" ry="0.37" transform="translate(-4.61 19.27) rotate(-5.89)"/><ellipse class="cls-6" cx="190.37" cy="53.48" rx="0.36" ry="0.37" transform="translate(-4.48 19.81) rotate(-5.89)"/><ellipse class="cls-8" cx="180.19" cy="53.62" rx="0.36" ry="0.37" transform="translate(-4.55 18.76) rotate(-5.89)"/><ellipse class="cls-6" cx="183.02" cy="58.23" rx="0.36" ry="0.37" transform="translate(-5.01 19.08) rotate(-5.89)"/><ellipse class="cls-6" cx="190.36" cy="55.93" rx="0.36" ry="0.37" transform="translate(-4.73 19.82) rotate(-5.89)"/><ellipse class="cls-6" cx="163.29" cy="66.51" rx="0.36" ry="0.37" transform="translate(-5.96 17.1) rotate(-5.89)"/><ellipse class="cls-8" cx="163.83" cy="65.26" rx="0.36" ry="0.37" transform="translate(-5.83 17.15) rotate(-5.89)"/><ellipse class="cls-6" cx="169.37" cy="67.42" rx="0.36" ry="0.37" transform="translate(-6.02 17.73) rotate(-5.89)"/><ellipse class="cls-6" cx="166.01" cy="60.95" rx="0.36" ry="0.37" transform="translate(-5.38 17.35) rotate(-5.89)"/><ellipse class="cls-6" cx="168.84" cy="65.56" rx="0.36" ry="0.37" transform="matrix(0.99, -0.1, 0.1, 0.99, -5.83, 17.66)"/><ellipse class="cls-6" cx="167.15" cy="69.31" rx="0.36" ry="0.37" transform="translate(-6.23 17.51) rotate(-5.89)"/><ellipse class="cls-6" cx="169.98" cy="73.92" rx="0.36" ry="0.37" transform="translate(-6.68 17.82) rotate(-5.89)"/><ellipse class="cls-6" cx="167.14" cy="71.76" rx="0.36" ry="0.37" transform="translate(-6.48 17.52) rotate(-5.89)"/><ellipse class="cls-8" cx="166.77" cy="73.56" rx="0.36" ry="0.37" transform="translate(-6.66 17.49) rotate(-5.89)"/><ellipse class="cls-8" cx="164.32" cy="62.72" rx="0.36" ry="0.37" transform="translate(-5.57 17.18) rotate(-5.89)"/><ellipse class="cls-8" cx="167.15" cy="67.33" rx="0.36" ry="0.37" transform="translate(-6.02 17.5) rotate(-5.89)"/><ellipse class="cls-8" cx="170.79" cy="64.76" rx="0.36" ry="0.37" transform="translate(-5.74 17.86) rotate(-5.89)"/><ellipse class="cls-8" cx="168.75" cy="68.55" rx="0.36" ry="0.37" transform="translate(-6.14 17.67) rotate(-5.89)"/><ellipse class="cls-8" cx="171.58" cy="73.16" rx="0.36" ry="0.37" transform="translate(-6.6 17.98) rotate(-5.89)"/><ellipse class="cls-8" cx="141.64" cy="45.71" rx="0.36" ry="0.37" transform="translate(-3.94 14.77) rotate(-5.89)"/><ellipse class="cls-8" cx="149.71" cy="43.62" rx="0.36" ry="0.37" transform="translate(-3.68 15.58) rotate(-5.89)"/><ellipse class="cls-6" cx="137.36" cy="44.87" rx="0.36" ry="0.37" transform="matrix(0.99, -0.1, 0.1, 0.99, -3.88, 14.32)"/><ellipse class="cls-8" cx="140.19" cy="49.47" rx="0.36" ry="0.37" transform="translate(-4.33 14.64) rotate(-5.89)"/><ellipse class="cls-8" cx="147.18" cy="44.76" rx="0.36" ry="0.37" transform="translate(-3.81 15.33) rotate(-5.89)"/><ellipse class="cls-6" cx="145.5" cy="48.52" rx="0.36" ry="0.37" transform="translate(-4.21 15.18) rotate(-5.89)"/><ellipse class="cls-8" cx="148.33" cy="53.13" rx="0.36" ry="0.37" transform="translate(-4.67 15.49) rotate(-5.89)"/><ellipse class="cls-8" cx="135.32" cy="48.66" rx="0.36" ry="0.37" transform="translate(-4.28 14.14) rotate(-5.89)"/><ellipse class="cls-6" cx="138.15" cy="53.26" rx="0.36" ry="0.37" transform="translate(-4.73 14.45) rotate(-5.89)"/><ellipse class="cls-6" cx="145.49" cy="50.97" rx="0.36" ry="0.37" transform="translate(-4.46 15.19) rotate(-5.89)"/><ellipse class="cls-8" cx="152.65" cy="51.93" rx="0.36" ry="0.37" transform="translate(-4.52 15.93) rotate(-5.89)"/><ellipse class="cls-6" cx="150.19" cy="41.09" rx="0.36" ry="0.37" transform="translate(-3.42 15.62) rotate(-5.89)"/><ellipse class="cls-8" cx="153.02" cy="45.7" rx="0.36" ry="0.37" transform="translate(-3.88 15.94) rotate(-5.89)"/><ellipse class="cls-8" cx="163.75" cy="43.38" rx="0.36" ry="0.37" transform="translate(-3.59 17.02) rotate(-5.89)"/><ellipse class="cls-8" cx="159.48" cy="42.53" rx="0.36" ry="0.37" transform="translate(-3.52 16.58) rotate(-5.89)"/><ellipse class="cls-6" cx="162.3" cy="47.14" rx="0.36" ry="0.37" transform="translate(-3.98 16.89) rotate(-5.89)"/><ellipse class="cls-6" cx="167.61" cy="46.18" rx="0.36" ry="0.37" transform="translate(-3.85 17.43) rotate(-5.89)"/><ellipse class="cls-8" cx="157.43" cy="46.32" rx="0.36" ry="0.37" transform="translate(-3.92 16.39) rotate(-5.89)"/><ellipse class="cls-6" cx="160.26" cy="50.93" rx="0.36" ry="0.37" transform="translate(-4.38 16.7) rotate(-5.89)"/><ellipse class="cls-6" cx="167.6" cy="48.63" rx="0.36" ry="0.37" transform="translate(-4.1 17.45) rotate(-5.89)"/><ellipse class="cls-6" cx="140.53" cy="59.21" rx="0.36" ry="0.37" transform="translate(-5.33 14.73) rotate(-5.89)"/><ellipse class="cls-8" cx="141.08" cy="57.96" rx="0.36" ry="0.37" transform="translate(-5.2 14.77) rotate(-5.89)"/><ellipse class="cls-6" cx="146.61" cy="60.12" rx="0.36" ry="0.37" transform="translate(-5.39 15.35) rotate(-5.89)"/><ellipse class="cls-6" cx="143.25" cy="53.65" rx="0.36" ry="0.37" transform="translate(-4.75 14.97) rotate(-5.89)"/><ellipse class="cls-6" cx="146.08" cy="58.26" rx="0.36" ry="0.37" transform="translate(-5.2 15.29) rotate(-5.89)"/><ellipse class="cls-6" cx="144.39" cy="62.01" rx="0.36" ry="0.37" transform="translate(-5.6 15.14) rotate(-5.89)"/><ellipse class="cls-6" cx="147.22" cy="66.62" rx="0.36" ry="0.37" transform="translate(-6.06 15.45) rotate(-5.89)"/><ellipse class="cls-6" cx="144.38" cy="64.46" rx="0.36" ry="0.37" transform="translate(-5.85 15.15) rotate(-5.89)"/><ellipse class="cls-8" cx="144.01" cy="66.26" rx="0.36" ry="0.37" transform="translate(-6.04 15.12) rotate(-5.89)"/><ellipse class="cls-8" cx="141.56" cy="55.43" rx="0.36" ry="0.37" transform="translate(-4.94 14.81) rotate(-5.89)"/><ellipse class="cls-8" cx="144.39" cy="60.03" rx="0.36" ry="0.37" transform="translate(-5.4 15.12) rotate(-5.89)"/><ellipse class="cls-8" cx="148.03" cy="57.46" rx="0.36" ry="0.37" transform="matrix(0.99, -0.1, 0.1, 0.99, -5.11, 15.48)"/><ellipse class="cls-8" cx="145.99" cy="61.25" rx="0.36" ry="0.37" transform="translate(-5.51 15.3) rotate(-5.89)"/><ellipse class="cls-8" cx="148.82" cy="65.86" rx="0.36" ry="0.37" transform="translate(-5.97 15.61) rotate(-5.89)"/><ellipse class="cls-8" cx="142.01" cy="81.14" rx="0.36" ry="0.37" transform="translate(-7.57 14.99) rotate(-5.89)"/><ellipse class="cls-8" cx="133.93" cy="83.23" rx="0.36" ry="0.37" transform="translate(-7.83 14.18) rotate(-5.89)"/><ellipse class="cls-6" cx="146.28" cy="81.99" rx="0.36" ry="0.37" transform="matrix(0.99, -0.1, 0.1, 0.99, -7.64, 15.43)"/><ellipse class="cls-8" cx="143.45" cy="77.38" rx="0.36" ry="0.37" transform="translate(-7.18 15.12) rotate(-5.89)"/><ellipse class="cls-8" cx="136.46" cy="82.09" rx="0.36" ry="0.37" transform="translate(-7.7 14.43) rotate(-5.89)"/><ellipse class="cls-6" cx="138.15" cy="78.33" rx="0.36" ry="0.37" transform="translate(-7.31 14.58) rotate(-5.89)"/><ellipse class="cls-8" cx="135.32" cy="73.73" rx="0.36" ry="0.37" transform="translate(-6.85 14.27) rotate(-5.89)"/><ellipse class="cls-8" cx="148.32" cy="78.2" rx="0.36" ry="0.37" transform="translate(-7.24 15.62) rotate(-5.89)"/><ellipse class="cls-6" cx="145.5" cy="73.59" rx="0.36" ry="0.37" transform="translate(-6.78 15.31) rotate(-5.89)"/><ellipse class="cls-6" cx="138.16" cy="75.88" rx="0.36" ry="0.37" transform="translate(-7.05 14.57) rotate(-5.89)"/><ellipse class="cls-8" cx="131" cy="74.93" rx="0.36" ry="0.37" transform="translate(-6.99 13.83) rotate(-5.89)"/><ellipse class="cls-6" cx="133.45" cy="85.76" rx="0.36" ry="0.37" transform="translate(-8.09 14.14) rotate(-5.89)"/><ellipse class="cls-8" cx="130.62" cy="81.15" rx="0.36" ry="0.37" transform="translate(-7.63 13.82) rotate(-5.89)"/><ellipse class="cls-8" cx="119.9" cy="83.48" rx="0.36" ry="0.37" transform="translate(-7.93 12.74) rotate(-5.89)"/><ellipse class="cls-8" cx="124.17" cy="84.32" rx="0.36" ry="0.37" transform="translate(-7.99 13.18) rotate(-5.89)"/><ellipse class="cls-6" cx="121.34" cy="79.72" rx="0.36" ry="0.37" transform="translate(-7.54 12.87) rotate(-5.89)"/><ellipse class="cls-6" cx="116.04" cy="80.67" rx="0.36" ry="0.37" transform="translate(-7.66 12.33) rotate(-5.89)"/><ellipse class="cls-8" cx="126.21" cy="80.53" rx="0.36" ry="0.37" transform="translate(-7.59 13.37) rotate(-5.89)"/><ellipse class="cls-6" cx="123.38" cy="75.93" rx="0.36" ry="0.37" transform="translate(-7.14 13.05) rotate(-5.89)"/><ellipse class="cls-6" cx="116.05" cy="78.22" rx="0.36" ry="0.37" transform="translate(-7.41 12.31) rotate(-5.89)"/><ellipse class="cls-6" cx="143.11" cy="67.65" rx="0.36" ry="0.37" transform="translate(-6.18 15.03) rotate(-5.89)"/><ellipse class="cls-8" cx="142.57" cy="68.9" rx="0.36" ry="0.37" transform="translate(-6.31 14.99) rotate(-5.89)"/><ellipse class="cls-6" cx="137.04" cy="66.74" rx="0.36" ry="0.37" transform="translate(-6.12 14.41) rotate(-5.89)"/><ellipse class="cls-6" cx="140.4" cy="73.2" rx="0.36" ry="0.37" transform="translate(-6.77 14.79) rotate(-5.89)"/><ellipse class="cls-6" cx="137.57" cy="68.6" rx="0.36" ry="0.37" transform="translate(-6.31 14.47) rotate(-5.89)"/><ellipse class="cls-6" cx="139.26" cy="64.84" rx="0.36" ry="0.37" transform="translate(-5.92 14.62) rotate(-5.89)"/><ellipse class="cls-6" cx="136.43" cy="60.23" rx="0.36" ry="0.37" transform="translate(-5.46 14.31) rotate(-5.89)"/><ellipse class="cls-6" cx="139.26" cy="62.39" rx="0.36" ry="0.37" transform="translate(-5.66 14.61) rotate(-5.89)"/><ellipse class="cls-8" cx="139.64" cy="60.59" rx="0.36" ry="0.37" transform="translate(-5.48 14.64) rotate(-5.89)"/><ellipse class="cls-8" cx="142.09" cy="71.43" rx="0.36" ry="0.37" transform="translate(-6.58 14.95) rotate(-5.89)"/><ellipse class="cls-8" cx="139.26" cy="66.82" rx="0.36" ry="0.37" transform="translate(-6.12 14.63) rotate(-5.89)"/><ellipse class="cls-8" cx="135.62" cy="69.39" rx="0.36" ry="0.37" transform="matrix(0.99, -0.1, 0.1, 0.99, -6.4, 14.27)"/><ellipse class="cls-8" cx="137.66" cy="65.6" rx="0.36" ry="0.37" transform="translate(-6 14.46) rotate(-5.89)"/><ellipse class="cls-8" cx="134.83" cy="61" rx="0.36" ry="0.37" transform="translate(-5.54 14.15) rotate(-5.89)"/><polygon class="cls-6" points="82.72 136 82.57 100.53 269.12 101.05 269.01 136 82.72 136"/><path class="cls-7" d="M255.26,89.67s28.66,31.67-27.16,38.67S102.58,129,93,109c0,0-9.24-22,11.73-22,0,0,12.8,20.67,63.61,19.33C204.58,105.38,242.95,106.67,255.26,89.67Z"/></svg>