<svg id="Layer_1" data-name="Layer 1" xmlns="http://www.w3.org/2000/svg" viewBox="0 0 400 400"><defs><style>.cls-1{fill:#e0dfdd;}.cls-2{fill:#865328;}.cls-3{fill:#f2e2b2;}.cls-4{fill:#94623b;}.cls-5{fill:#ef6666;}.cls-6{fill:#fff;}.cls-7{fill:#fffbf2;}</style></defs><title>Peppermint Latte</title><path class="cls-1" d="M34,97.29V242.64c0,26.08,14.3,50.38,38,64.6l11.81,7.08a88.65,88.65,0,0,0,45.51,12.45H177a88.44,88.44,0,0,0,47.89-13.93l12.21-7.89c23-14.83,36.33-39.31,35.59-65.16l-4.1-142.5Z"/><path class="cls-2" d="M55.57,198H251.1v41.25c0,36.2-30,65.54-67.08,65.54H122.65c-37,0-67.08-29.35-67.08-65.54Z"/><rect class="cls-3" x="55.57" y="138.29" width="195.53" height="52.81"/><ellipse class="cls-4" cx="129.02" cy="233.8" rx="6.14" ry="5.66"/><path class="cls-4" d="M152.78,236.48a5.56,5.56,0,0,1-5.27-5.93,5.78,5.78,0,0,1,6.44-4.85,5.56,5.56,0,0,1,5.27,5.93A5.78,5.78,0,0,1,152.78,236.48Z"/><ellipse class="cls-4" cx="184.61" cy="220.89" rx="5.88" ry="5.42"/><ellipse class="cls-4" cx="167.32" cy="254.51" rx="5.88" ry="5.42"/><ellipse class="cls-4" cx="141.31" cy="274.57" rx="6.14" ry="5.66"/><path class="cls-1" d="M314.16,110.45c-11.1-2-28.63-1-34.34,5.53-14.66,16.83-15.7,87.88-15.7,87.88,16.63-30.22,66.39-32.3,70.12-53.07C339.38,122.15,322.75,112,314.16,110.45Zm-7.61,41.49a15.38,15.38,0,1,1,15.38-15.38A15.38,15.38,0,0,1,306.54,151.94Z"/><rect class="cls-5" x="55.73" y="170.69" width="48.88" height="26.4"/><rect class="cls-6" x="104.52" y="170.69" width="48.88" height="26.4"/><rect class="cls-5" x="153.31" y="170.69" width="48.88" height="26.4"/><rect class="cls-6" x="202.1" y="170.69" width="48.88" height="26.4"/><path class="cls-6" d="M150.42,10.5s6.53,18.42-2,18.42-40.95,3-45,20c0,0-23.08,9.69-21.59,22.35,0,0-26-2.82-26.16,26.22,0,0,11,32.47,54.37,32.47h96.29S251,107.39,251.1,98.05c0,0-.12-20.76-30-25.3,0,0,4.16-22.75-22.52-25.75C198.63,47,176.59,15.67,150.42,10.5Z"/><path class="cls-7" d="M209.63,58.67S230.29,90.33,190,97.33,99.57,98,92.65,78c0,0-6.66-22,8.46-22,0,0,9.23,20.67,45.85,19.33C173.1,74.38,200.75,75.67,209.63,58.67Z"/><path class="cls-7" d="M177.47,43.6s9,13.8-8.53,16.85-39.43.29-42.45-8.43c0,0-2.9-9.59,3.69-9.59,0,0,4,9,20,8.43C161.55,50.45,173.6,51,177.47,43.6Z"/><circle class="cls-5" cx="112.79" cy="53.96" r="0.38"/><circle class="cls-5" cx="121.42" cy="52.71" r="0.38"/><circle class="cls-6" cx="108.42" cy="52.67" r="0.38"/><circle class="cls-5" cx="110.92" cy="57.55" r="0.38"/><circle class="cls-5" cx="118.67" cy="53.58" r="0.38"/><circle class="cls-6" cx="116.54" cy="57.14" r="0.38"/><circle class="cls-5" cx="119.04" cy="62.02" r="0.38"/><circle class="cls-5" cx="105.92" cy="56.24" r="0.38"/><circle class="cls-6" cx="108.42" cy="61.11" r="0.38"/><circle class="cls-6" cx="116.29" cy="59.58" r="0.38"/><circle class="cls-5" cx="123.67" cy="61.27" r="0.38"/><circle class="cls-6" cx="122.17" cy="50.24" r="0.38"/><circle class="cls-5" cx="124.67" cy="55.11" r="0.38"/><circle class="cls-5" cx="136.08" cy="53.9" r="0.38"/><circle class="cls-5" cx="131.71" cy="52.62" r="0.38"/><circle class="cls-6" cx="134.21" cy="57.49" r="0.38"/><circle class="cls-6" cx="139.84" cy="57.09" r="0.38"/><circle class="cls-5" cx="129.21" cy="56.18" r="0.38"/><circle class="cls-6" cx="131.71" cy="61.06" r="0.38"/><circle class="cls-6" cx="139.59" cy="59.53" r="0.38"/><circle class="cls-6" cx="110.32" cy="67.27" r="0.38"/><circle class="cls-5" cx="111.01" cy="66.08" r="0.38"/><circle class="cls-6" cx="116.57" cy="68.8" r="0.38"/><circle class="cls-6" cx="113.69" cy="62.02" r="0.38"/><circle class="cls-6" cx="116.19" cy="66.9" r="0.38"/><circle class="cls-6" cx="114.07" cy="70.46" r="0.38"/><circle class="cls-6" cx="116.57" cy="75.34" r="0.38"/><circle class="cls-6" cx="113.82" cy="72.9" r="0.38"/><circle class="cls-5" cx="113.26" cy="74.65" r="0.38"/><circle class="cls-5" cx="111.76" cy="63.61" r="0.38"/><circle class="cls-5" cx="114.26" cy="68.49" r="0.38"/><circle class="cls-5" cx="118.31" cy="66.3" r="0.38"/><circle class="cls-5" cx="115.81" cy="69.86" r="0.38"/><circle class="cls-5" cx="118.31" cy="74.74" r="0.38"/><circle class="cls-5" cx="156.98" cy="71.64" r="0.38"/><circle class="cls-5" cx="158.23" cy="80.26" r="0.38"/><circle class="cls-6" cx="158.26" cy="67.26" r="0.38"/><circle class="cls-5" cx="153.38" cy="69.76" r="0.38"/><circle class="cls-5" cx="157.35" cy="77.51" r="0.38"/><circle class="cls-6" cx="153.79" cy="75.39" r="0.38"/><circle class="cls-5" cx="148.91" cy="77.89" r="0.38"/><circle class="cls-5" cx="154.7" cy="64.76" r="0.38"/><circle class="cls-6" cx="149.82" cy="67.26" r="0.38"/><circle class="cls-6" cx="151.35" cy="75.14" r="0.38"/><circle class="cls-5" cx="149.66" cy="82.51" r="0.38"/><circle class="cls-6" cx="160.7" cy="81.01" r="0.38"/><circle class="cls-5" cx="155.82" cy="83.51" r="0.38"/><circle class="cls-5" cx="157.03" cy="94.93" r="0.38"/><circle class="cls-5" cx="158.32" cy="90.55" r="0.38"/><circle class="cls-6" cx="153.44" cy="93.05" r="0.38"/><circle class="cls-6" cx="153.85" cy="98.68" r="0.38"/><circle class="cls-5" cx="154.75" cy="88.05" r="0.38"/><circle class="cls-6" cx="149.88" cy="90.55" r="0.38"/><circle class="cls-6" cx="151.41" cy="98.43" r="0.38"/><circle class="cls-6" cx="143.66" cy="69.16" r="0.38"/><circle class="cls-5" cx="144.85" cy="69.85" r="0.38"/><circle class="cls-6" cx="142.13" cy="75.41" r="0.38"/><circle class="cls-6" cx="148.91" cy="72.54" r="0.38"/><circle class="cls-6" cx="144.04" cy="75.04" r="0.38"/><circle class="cls-6" cx="140.47" cy="72.91" r="0.38"/><circle class="cls-6" cx="135.6" cy="75.41" r="0.38"/><circle class="cls-6" cx="138.04" cy="72.66" r="0.38"/><circle class="cls-5" cx="136.29" cy="72.1" r="0.38"/><circle class="cls-5" cx="147.32" cy="70.6" r="0.38"/><circle class="cls-5" cx="142.44" cy="73.1" r="0.38"/><circle class="cls-5" cx="144.63" cy="77.15" r="0.38"/><circle class="cls-5" cx="141.07" cy="74.65" r="0.38"/><circle class="cls-5" cx="136.19" cy="77.15" r="0.38"/><circle class="cls-5" cx="184.03" cy="50.6" r="0.38"/><circle class="cls-5" cx="185.28" cy="59.23" r="0.38"/><circle class="cls-6" cx="185.31" cy="46.22" r="0.38"/><circle class="cls-5" cx="180.43" cy="48.72" r="0.38"/><circle class="cls-5" cx="184.4" cy="56.47" r="0.38"/><circle class="cls-6" cx="180.84" cy="54.35" r="0.38"/><circle class="cls-5" cx="175.96" cy="56.85" r="0.38"/><circle class="cls-5" cx="181.75" cy="43.72" r="0.38"/><circle class="cls-6" cx="176.87" cy="46.22" r="0.38"/><circle class="cls-6" cx="178.4" cy="54.1" r="0.38"/><circle class="cls-5" cx="176.71" cy="61.48" r="0.38"/><circle class="cls-6" cx="187.75" cy="59.98" r="0.38"/><circle class="cls-5" cx="182.87" cy="62.48" r="0.38"/><circle class="cls-5" cx="184.08" cy="73.89" r="0.38"/><circle class="cls-5" cx="185.37" cy="69.52" r="0.38"/><circle class="cls-6" cx="180.49" cy="72.02" r="0.38"/><circle class="cls-6" cx="180.89" cy="77.64" r="0.38"/><circle class="cls-5" cx="181.8" cy="67.01" r="0.38"/><circle class="cls-6" cx="176.93" cy="69.52" r="0.38"/><circle class="cls-6" cx="178.46" cy="77.39" r="0.38"/><circle class="cls-6" cx="170.71" cy="48.12" r="0.38"/><circle class="cls-5" cx="171.9" cy="48.81" r="0.38"/><circle class="cls-6" cx="169.18" cy="54.38" r="0.38"/><circle class="cls-6" cx="175.96" cy="51.5" r="0.38"/><circle class="cls-6" cx="171.09" cy="54" r="0.38"/><circle class="cls-6" cx="167.52" cy="51.88" r="0.38"/><circle class="cls-6" cx="162.65" cy="54.38" r="0.38"/><circle class="cls-6" cx="165.09" cy="51.63" r="0.38"/><circle class="cls-5" cx="163.34" cy="51.06" r="0.38"/><circle class="cls-5" cx="174.37" cy="49.56" r="0.38"/><circle class="cls-5" cx="169.49" cy="52.06" r="0.38"/><circle class="cls-5" cx="171.68" cy="56.12" r="0.38"/><circle class="cls-5" cx="168.12" cy="53.62" r="0.38"/><circle class="cls-5" cx="163.24" cy="56.12" r="0.38"/><circle class="cls-5" cx="191.3" cy="82.75" r="0.38" transform="translate(-7.18 19.12) rotate(-5.62)"/><circle class="cls-5" cx="199.76" cy="80.66" r="0.38" transform="translate(-6.94 19.94) rotate(-5.62)"/><circle class="cls-6" cx="186.82" cy="81.9" r="0.38" transform="matrix(1, -0.1, 0.1, 1, -7.12, 18.68)"/><circle class="cls-5" cx="189.78" cy="86.51" r="0.38" transform="translate(-7.56 18.99) rotate(-5.62)"/><circle class="cls-5" cx="197.11" cy="81.8" r="0.38" transform="translate(-7.06 19.69) rotate(-5.62)"/><circle class="cls-6" cx="195.34" cy="85.56" r="0.38" transform="matrix(1, -0.1, 0.1, 1, -7.44, 19.53)"/><circle class="cls-5" cx="198.31" cy="90.17" r="0.38" transform="translate(-7.87 19.85) rotate(-5.62)"/><circle class="cls-5" cx="184.68" cy="85.7" r="0.38" transform="translate(-7.5 18.49) rotate(-5.62)"/><circle class="cls-6" cx="187.64" cy="90.3" r="0.38" transform="translate(-7.94 18.8) rotate(-5.62)"/><circle class="cls-6" cx="195.33" cy="88.01" r="0.38" transform="matrix(1, -0.1, 0.1, 1, -7.68, 19.54)"/><circle class="cls-5" cx="202.84" cy="88.97" r="0.38" transform="translate(-7.74 20.28) rotate(-5.62)"/><circle class="cls-6" cx="200.26" cy="78.13" r="0.38" transform="translate(-6.69 19.98) rotate(-5.62)"/><circle class="cls-5" cx="203.23" cy="82.74" r="0.38" transform="translate(-7.12 20.29) rotate(-5.62)"/><circle class="cls-5" cx="214.47" cy="80.42" r="0.38" transform="translate(-6.84 21.38) rotate(-5.62)"/><circle class="cls-5" cx="209.99" cy="79.57" r="0.38" transform="translate(-6.78 20.94) rotate(-5.62)"/><circle class="cls-6" cx="212.96" cy="84.18" r="0.38" transform="translate(-7.22 21.25) rotate(-5.62)"/><circle class="cls-6" cx="218.52" cy="83.22" r="0.38" transform="translate(-7.1 21.79) rotate(-5.62)"/><circle class="cls-5" cx="207.85" cy="83.36" r="0.38" transform="translate(-7.16 20.75) rotate(-5.62)"/><circle class="cls-6" cx="210.82" cy="87.97" r="0.38" transform="translate(-7.6 21.06) rotate(-5.62)"/><circle class="cls-6" cx="218.51" cy="85.67" r="0.38" transform="translate(-7.34 21.8) rotate(-5.62)"/><circle class="cls-6" cx="190.14" cy="96.25" r="0.38" transform="translate(-8.51 19.08) rotate(-5.62)"/><circle class="cls-5" cx="190.7" cy="95" r="0.38" transform="translate(-8.38 19.13) rotate(-5.62)"/><circle class="cls-6" cx="196.51" cy="97.16" r="0.38" transform="translate(-8.57 19.7) rotate(-5.62)"/><circle class="cls-6" cx="192.98" cy="90.69" r="0.38" transform="matrix(1, -0.1, 0.1, 1, -7.95, 19.33)"/><circle class="cls-6" cx="195.95" cy="95.3" r="0.38" transform="matrix(1, -0.1, 0.1, 1, -8.39, 19.64)"/><circle class="cls-6" cx="194.18" cy="99.05" r="0.38" transform="translate(-8.76 19.49) rotate(-5.62)"/><circle class="cls-6" cx="197.15" cy="103.66" r="0.38" transform="translate(-9.2 19.8) rotate(-5.62)"/><circle class="cls-6" cx="194.17" cy="101.5" r="0.38" transform="translate(-9 19.5) rotate(-5.62)"/><circle class="cls-5" cx="193.78" cy="103.3" r="0.38" transform="translate(-9.18 19.47) rotate(-5.62)"/><circle class="cls-5" cx="191.21" cy="92.47" r="0.38" transform="translate(-8.13 19.16) rotate(-5.62)"/><circle class="cls-5" cx="194.18" cy="97.07" r="0.38" transform="translate(-8.57 19.48) rotate(-5.62)"/><circle class="cls-5" cx="198" cy="94.5" r="0.38" transform="matrix(1, -0.1, 0.1, 1, -8.3, 19.84)"/><circle class="cls-5" cx="195.86" cy="98.29" r="0.38" transform="translate(-8.68 19.65) rotate(-5.62)"/><circle class="cls-5" cx="198.82" cy="102.9" r="0.38" transform="translate(-9.12 19.96) rotate(-5.62)"/><circle class="cls-5" cx="141.34" cy="50.01" r="0.38" transform="translate(-4.22 14.08) rotate(-5.62)"/><circle class="cls-5" cx="149.8" cy="47.92" r="0.38" transform="translate(-3.97 14.89) rotate(-5.62)"/><circle class="cls-6" cx="136.86" cy="49.16" r="0.38" transform="matrix(1, -0.1, 0.1, 1, -4.16, 13.63)"/><circle class="cls-5" cx="139.82" cy="53.77" r="0.38" transform="translate(-4.59 13.95) rotate(-5.62)"/><circle class="cls-5" cx="147.15" cy="49.06" r="0.38" transform="translate(-4.1 14.64) rotate(-5.62)"/><circle class="cls-6" cx="145.38" cy="52.82" r="0.38" transform="matrix(1, -0.1, 0.1, 1, -4.47, 14.49)"/><circle class="cls-5" cx="148.35" cy="57.43" r="0.38" transform="translate(-4.91 14.8) rotate(-5.62)"/><circle class="cls-5" cx="134.72" cy="52.95" r="0.38" transform="translate(-4.54 13.44) rotate(-5.62)"/><circle class="cls-6" cx="137.68" cy="57.56" r="0.38" transform="translate(-4.97 13.75) rotate(-5.62)"/><circle class="cls-6" cx="145.37" cy="55.27" r="0.38" transform="matrix(1, -0.1, 0.1, 1, -4.71, 14.5)"/><circle class="cls-5" cx="152.88" cy="56.23" r="0.38" transform="translate(-4.77 15.24) rotate(-5.62)"/><circle class="cls-6" cx="150.3" cy="45.39" r="0.38" transform="translate(-3.72 14.93) rotate(-5.62)"/><circle class="cls-5" cx="153.27" cy="50" r="0.38" transform="translate(-4.16 15.24) rotate(-5.62)"/><circle class="cls-5" cx="164.51" cy="47.68" r="0.38" transform="translate(-3.88 16.33) rotate(-5.62)"/><circle class="cls-5" cx="160.03" cy="46.83" r="0.38" transform="translate(-3.82 15.89) rotate(-5.62)"/><circle class="cls-6" cx="163" cy="51.44" r="0.38" transform="translate(-4.25 16.2) rotate(-5.62)"/><circle class="cls-6" cx="168.56" cy="50.48" r="0.38" transform="translate(-4.13 16.74) rotate(-5.62)"/><circle class="cls-5" cx="157.89" cy="50.62" r="0.38" transform="translate(-4.2 15.7) rotate(-5.62)"/><circle class="cls-6" cx="160.86" cy="55.23" r="0.38" transform="translate(-4.63 16.01) rotate(-5.62)"/><circle class="cls-6" cx="168.55" cy="52.93" r="0.38" transform="translate(-4.37 16.75) rotate(-5.62)"/><circle class="cls-6" cx="140.18" cy="63.51" r="0.38" transform="translate(-5.54 14.03) rotate(-5.62)"/><circle class="cls-5" cx="140.75" cy="62.26" r="0.38" transform="translate(-5.42 14.08) rotate(-5.62)"/><circle class="cls-6" cx="146.55" cy="64.42" r="0.38" transform="translate(-5.6 14.66) rotate(-5.62)"/><circle class="cls-6" cx="143.02" cy="57.95" r="0.38" transform="matrix(1, -0.1, 0.1, 1, -4.99, 14.28)"/><circle class="cls-6" cx="145.99" cy="62.56" r="0.38" transform="matrix(1, -0.1, 0.1, 1, -5.42, 14.59)"/><circle class="cls-6" cx="144.22" cy="66.31" r="0.38" transform="translate(-5.8 14.44) rotate(-5.62)"/><circle class="cls-6" cx="147.19" cy="70.92" r="0.38" transform="translate(-6.24 14.75) rotate(-5.62)"/><circle class="cls-6" cx="144.21" cy="68.76" r="0.38" transform="translate(-6.04 14.45) rotate(-5.62)"/><circle class="cls-5" cx="143.82" cy="70.56" r="0.38" transform="translate(-6.22 14.42) rotate(-5.62)"/><circle class="cls-5" cx="141.25" cy="59.72" r="0.38" transform="translate(-5.17 14.11) rotate(-5.62)"/><circle class="cls-5" cx="144.22" cy="64.33" r="0.38" transform="translate(-5.61 14.43) rotate(-5.62)"/><circle class="cls-5" cx="148.04" cy="61.76" r="0.38" transform="matrix(1, -0.1, 0.1, 1, -5.33, 14.79)"/><circle class="cls-5" cx="145.9" cy="65.55" r="0.38" transform="translate(-5.72 14.6) rotate(-5.62)"/><circle class="cls-5" cx="148.86" cy="70.16" r="0.38" transform="translate(-6.15 14.91) rotate(-5.62)"/><circle class="cls-5" cx="117.48" cy="42.71" r="0.38" transform="translate(-3.62 11.71) rotate(-5.62)"/><circle class="cls-5" cx="125.94" cy="40.62" r="0.38" transform="translate(-3.37 12.52) rotate(-5.62)"/><circle class="cls-6" cx="113" cy="41.87" r="0.38" transform="matrix(1, -0.1, 0.1, 1, -3.56, 11.26)"/><circle class="cls-5" cx="115.97" cy="46.47" r="0.38" transform="translate(-3.99 11.58) rotate(-5.62)"/><circle class="cls-5" cx="123.29" cy="41.76" r="0.38" transform="translate(-3.5 12.27) rotate(-5.62)"/><circle class="cls-6" cx="121.53" cy="45.52" r="0.38" transform="matrix(1, -0.1, 0.1, 1, -3.87, 12.12)"/><circle class="cls-5" cx="124.49" cy="50.13" r="0.38" transform="translate(-4.31 12.43) rotate(-5.62)"/><circle class="cls-5" cx="110.86" cy="45.66" r="0.38" transform="translate(-3.94 11.07) rotate(-5.62)"/><circle class="cls-6" cx="113.83" cy="50.26" r="0.38" transform="translate(-4.37 11.38) rotate(-5.62)"/><circle class="cls-6" cx="121.52" cy="47.97" r="0.38" transform="matrix(1, -0.1, 0.1, 1, -4.11, 12.13)"/><circle class="cls-5" cx="129.02" cy="48.93" r="0.38" transform="translate(-4.17 12.87) rotate(-5.62)"/><circle class="cls-6" cx="126.45" cy="38.09" r="0.38" transform="translate(-3.12 12.56) rotate(-5.62)"/><circle class="cls-5" cx="129.42" cy="42.7" r="0.38" transform="translate(-3.56 12.87) rotate(-5.62)"/><circle class="cls-5" cx="140.66" cy="40.38" r="0.38" transform="translate(-3.28 13.96) rotate(-5.62)"/><circle class="cls-5" cx="136.18" cy="39.53" r="0.38" transform="translate(-3.22 13.52) rotate(-5.62)"/><circle class="cls-6" cx="139.14" cy="44.14" r="0.38" transform="translate(-3.65 13.83) rotate(-5.62)"/><circle class="cls-6" cx="144.7" cy="43.18" r="0.38" transform="translate(-3.53 14.37) rotate(-5.62)"/><circle class="cls-5" cx="134.04" cy="43.32" r="0.38" transform="translate(-3.6 13.33) rotate(-5.62)"/><circle class="cls-6" cx="137" cy="47.93" r="0.38" transform="translate(-4.03 13.64) rotate(-5.62)"/><circle class="cls-6" cx="144.69" cy="45.63" r="0.38" transform="translate(-3.77 14.38) rotate(-5.62)"/><circle class="cls-6" cx="116.32" cy="56.21" r="0.38" transform="translate(-4.94 11.66) rotate(-5.62)"/><circle class="cls-5" cx="116.89" cy="54.96" r="0.38" transform="translate(-4.82 11.71) rotate(-5.62)"/><circle class="cls-6" cx="122.69" cy="57.12" r="0.38" transform="translate(-5 12.29) rotate(-5.62)"/><circle class="cls-6" cx="119.17" cy="50.65" r="0.38" transform="matrix(1, -0.1, 0.1, 1, -4.39, 11.91)"/><circle class="cls-6" cx="122.13" cy="55.26" r="0.38" transform="matrix(1, -0.1, 0.1, 1, -4.82, 12.22)"/><circle class="cls-6" cx="120.37" cy="59.01" r="0.38" transform="translate(-5.2 12.07) rotate(-5.62)"/><circle class="cls-6" cx="123.33" cy="63.62" r="0.38" transform="translate(-5.64 12.38) rotate(-5.62)"/><circle class="cls-6" cx="120.36" cy="61.46" r="0.38" transform="translate(-5.44 12.08) rotate(-5.62)"/><circle class="cls-5" cx="119.97" cy="63.26" r="0.38" transform="translate(-5.62 12.05) rotate(-5.62)"/><circle class="cls-5" cx="117.4" cy="52.43" r="0.38" transform="translate(-4.57 11.74) rotate(-5.62)"/><circle class="cls-5" cx="120.36" cy="57.03" r="0.38" transform="translate(-5.01 12.06) rotate(-5.62)"/><circle class="cls-5" cx="124.18" cy="54.46" r="0.38" transform="matrix(1, -0.1, 0.1, 1, -4.73, 12.42)"/><circle class="cls-5" cx="122.04" cy="58.25" r="0.38" transform="translate(-5.12 12.23) rotate(-5.62)"/><circle class="cls-5" cx="125.01" cy="62.86" r="0.38" transform="translate(-5.55 12.54) rotate(-5.62)"/><circle class="cls-5" cx="117.87" cy="78.14" r="0.38" transform="translate(-7.08 11.91) rotate(-5.62)"/><circle class="cls-5" cx="109.41" cy="80.23" r="0.38" transform="translate(-7.33 11.1) rotate(-5.62)"/><circle class="cls-6" cx="122.35" cy="78.99" r="0.38" transform="matrix(1, -0.1, 0.1, 1, -7.14, 12.36)"/><circle class="cls-5" cx="119.38" cy="74.38" r="0.38" transform="translate(-6.71 12.04) rotate(-5.62)"/><circle class="cls-5" cx="112.06" cy="79.09" r="0.38" transform="translate(-7.2 11.35) rotate(-5.62)"/><circle class="cls-6" cx="113.82" cy="75.33" r="0.38" transform="matrix(1, -0.1, 0.1, 1, -6.83, 11.5)"/><circle class="cls-5" cx="110.86" cy="70.73" r="0.38" transform="translate(-6.39 11.19) rotate(-5.62)"/><circle class="cls-5" cx="124.49" cy="75.2" r="0.38" transform="translate(-6.76 12.55) rotate(-5.62)"/><circle class="cls-6" cx="121.52" cy="70.59" r="0.38" transform="translate(-6.33 12.24) rotate(-5.62)"/><circle class="cls-6" cx="113.83" cy="72.88" r="0.38" transform="matrix(1, -0.1, 0.1, 1, -6.59, 11.49)"/><circle class="cls-5" cx="106.33" cy="71.93" r="0.38" transform="translate(-6.53 10.75) rotate(-5.62)"/><circle class="cls-6" cx="108.9" cy="82.76" r="0.38" transform="translate(-7.58 11.06) rotate(-5.62)"/><circle class="cls-5" cx="105.94" cy="78.15" r="0.38" transform="translate(-7.14 10.75) rotate(-5.62)"/><circle class="cls-5" cx="94.69" cy="80.48" r="0.38" transform="translate(-7.42 9.66) rotate(-5.62)"/><circle class="cls-5" cx="99.17" cy="81.32" r="0.38" transform="translate(-7.48 10.1) rotate(-5.62)"/><circle class="cls-6" cx="96.21" cy="76.72" r="0.38" transform="translate(-7.05 9.79) rotate(-5.62)"/><circle class="cls-6" cx="90.65" cy="77.67" r="0.38" transform="translate(-7.17 9.25) rotate(-5.62)"/><circle class="cls-5" cx="101.31" cy="77.53" r="0.38" transform="translate(-7.1 10.29) rotate(-5.62)"/><circle class="cls-6" cx="98.35" cy="72.93" r="0.38" transform="translate(-6.67 9.98) rotate(-5.62)"/><circle class="cls-6" cx="90.66" cy="75.22" r="0.38" transform="translate(-6.93 9.24) rotate(-5.62)"/><circle class="cls-6" cx="119.03" cy="64.65" r="0.38" transform="translate(-5.76 11.96) rotate(-5.62)"/><circle class="cls-5" cx="118.46" cy="65.9" r="0.38" transform="translate(-5.88 11.91) rotate(-5.62)"/><circle class="cls-6" cx="112.66" cy="63.74" r="0.38" transform="translate(-5.7 11.33) rotate(-5.62)"/><circle class="cls-6" cx="116.18" cy="70.2" r="0.38" transform="matrix(1, -0.1, 0.1, 1, -6.31, 11.71)"/><circle class="cls-6" cx="113.22" cy="65.6" r="0.38" transform="matrix(1, -0.1, 0.1, 1, -5.88, 11.4)"/><circle class="cls-6" cx="114.98" cy="61.84" r="0.38" transform="translate(-5.5 11.55) rotate(-5.62)"/><circle class="cls-6" cx="112.02" cy="57.23" r="0.38" transform="translate(-5.06 11.24) rotate(-5.62)"/><circle class="cls-6" cx="114.99" cy="59.39" r="0.38" transform="translate(-5.26 11.54) rotate(-5.62)"/><circle class="cls-5" cx="115.38" cy="57.59" r="0.38" transform="translate(-5.08 11.57) rotate(-5.62)"/><circle class="cls-5" cx="117.96" cy="68.43" r="0.38" transform="translate(-6.13 11.88) rotate(-5.62)"/><circle class="cls-5" cx="114.99" cy="63.82" r="0.38" transform="translate(-5.7 11.56) rotate(-5.62)"/><circle class="cls-5" cx="111.17" cy="66.39" r="0.38" transform="matrix(1, -0.1, 0.1, 1, -5.97, 11.2)"/><circle class="cls-5" cx="113.31" cy="62.6" r="0.38" transform="translate(-5.58 11.39) rotate(-5.62)"/><circle class="cls-5" cx="110.34" cy="58" r="0.38" transform="translate(-5.15 11.08) rotate(-5.62)"/><polygon class="cls-6" points="55.73 133 55.57 97.53 251.1 98.05 250.99 133 55.73 133"/><path class="cls-7" d="M236.57,86.67s30,31.67-28.47,38.67S76.54,126,66.48,106c0,0-9.69-22,12.3-22,0,0,13.42,20.67,66.67,19.33C183.45,102.38,223.67,103.67,236.57,86.67Z"/></svg>