<svg id="Layer_1" data-name="Layer 1" xmlns="http://www.w3.org/2000/svg" viewBox="0 0 400 400"><defs><style>.cls-1{fill:#e1e1df;}.cls-2{fill:#805026;}.cls-3{fill:#47301f;}.cls-4{fill:#95623b;}.cls-5{fill:#f4ae7f;}</style></defs><title>Pumpkin Spice Mocha</title><path class="cls-1" d="M34.11,101.29V185A82.68,82.68,0,0,0,52.83,237.4l42,51.24a82.68,82.68,0,0,0,64,30.29H198a82.68,82.68,0,0,0,65.23-31.87l39.89-51.21A82.68,82.68,0,0,0,320.6,185V101.29Z"/><rect class="cls-1" x="113.66" y="316.45" width="129.92" height="18.88" rx="2.12" ry="2.12"/><path class="cls-2" d="M84.64,140.25V196.3a56.32,56.32,0,0,0,12.19,35.08l27.33,34.31A53.27,53.27,0,0,0,165.8,286h25.57a53.31,53.31,0,0,0,42.47-21.34l26-34.29a56.36,56.36,0,0,0,11.36-34V140.25Z"/><path class="cls-3" d="M84.64,193.55v2.75a56.32,56.32,0,0,0,12.19,35.08l27.33,34.31A53.27,53.27,0,0,0,165.8,286h25.57a53.31,53.31,0,0,0,42.47-21.34l26-34.29a56.36,56.36,0,0,0,11.36-34v-2.77Z"/><circle class="cls-4" cx="153.76" cy="217.43" r="5.16"/><circle class="cls-4" cx="178.62" cy="221.98" r="5.16" transform="translate(-59.97 377.71) rotate(-84.31)"/><circle class="cls-4" cx="206.01" cy="212.27" r="5.16"/><circle class="cls-4" cx="190.86" cy="244.27" r="5.16"/><circle class="cls-4" cx="164.07" cy="254.58" r="5.16"/><path class="cls-1" d="M356.67,118.61c-11.1-2-28.63-1-34.34,5.53C307.67,141,306.63,212,306.63,212c16.63-30.22,66.39-32.3,70.12-53.07C381.89,130.31,365.26,120.17,356.67,118.61Zm-7.61,41.49a15.38,15.38,0,1,1,15.38-15.38A15.38,15.38,0,0,1,349.06,160.09Z"/><rect class="cls-5" x="84.64" y="178.58" width="186.53" height="15.17"/></svg>