<svg id="Layer_1" data-name="Layer 1" xmlns="http://www.w3.org/2000/svg" viewBox="0 0 400 400"><defs><style>.cls-1{fill:#e0dfdd;}.cls-2{fill:#865328;}.cls-3{fill:#f2e2b2;}.cls-4{fill:#f7eee0;}.cls-5{fill:#94623b;}.cls-6{fill:#9a3b58;}</style></defs><title>Raspberry Latte</title><path class="cls-1" d="M35.13,94.66V239.78c0,26,14.3,50.3,38,64.49l11.81,7.07a88.76,88.76,0,0,0,45.51,12.43h47.71A88.54,88.54,0,0,0,226,309.86L238.26,302c23-14.81,36.33-39.24,35.59-65.05l-4.1-142.26Z"/><path class="cls-2" d="M56.74,195H252.27v41.25c0,36.2-30,65.54-67.08,65.54H123.82c-37,0-67.08-29.35-67.08-65.54Z"/><rect class="cls-3" x="56.74" y="135.29" width="195.53" height="52.81"/><path class="cls-4" d="M248.14,130.62,235.63,83.29s-60.89,2-112.48-21.69c0,0-56.33-21-65.8,7.23s0,61.79,0,61.79Z"/><ellipse class="cls-5" cx="130.18" cy="230.8" rx="6.14" ry="5.66"/><path class="cls-5" d="M153.94,233.48a5.56,5.56,0,0,1-5.27-5.93,5.78,5.78,0,0,1,6.44-4.85,5.56,5.56,0,0,1,5.27,5.93A5.78,5.78,0,0,1,153.94,233.48Z"/><ellipse class="cls-5" cx="185.77" cy="217.89" rx="5.88" ry="5.42"/><ellipse class="cls-5" cx="168.49" cy="251.51" rx="5.88" ry="5.42"/><ellipse class="cls-5" cx="142.47" cy="271.57" rx="6.14" ry="5.66"/><path class="cls-1" d="M315.32,107.45c-11.1-2-28.63-1-34.34,5.53-14.66,16.83-15.7,87.88-15.7,87.88,16.63-30.22,66.39-32.3,70.12-53.07C340.54,119.15,323.91,109,315.32,107.45Zm-7.61,41.49a15.38,15.38,0,1,1,15.38-15.38A15.38,15.38,0,0,1,307.71,148.94Z"/><rect class="cls-6" x="56.74" y="168.69" width="195.53" height="26.4"/></svg>