<svg id="Layer_1" data-name="Layer 1" xmlns="http://www.w3.org/2000/svg" viewBox="0 0 400 400"><defs><style>.cls-1{fill:#e1e1df;}.cls-2{fill:#805026;}.cls-3{fill:#47301f;}.cls-4{fill:#95623b;}.cls-5{fill:#9b3a58;}.cls-6{fill:none;}</style></defs><title>Raspberry Mocha</title><path class="cls-1" d="M33.67,99.07v83.72a82.68,82.68,0,0,0,18.72,52.39l42,51.24a82.68,82.68,0,0,0,64,30.29h39.27a82.68,82.68,0,0,0,65.23-31.87l39.89-51.21a82.68,82.68,0,0,0,17.45-50.81V99.07Z"/><rect class="cls-1" x="113.23" y="314.23" width="129.92" height="18.88" rx="2.12" ry="2.12"/><path class="cls-2" d="M84.21,138v56.05A56.32,56.32,0,0,0,96.4,229.16l27.33,34.31a53.27,53.27,0,0,0,41.64,20.28h25.57A53.31,53.31,0,0,0,233.4,262.4l26-34.29a56.36,56.36,0,0,0,11.36-34V138Z"/><path class="cls-3" d="M84.21,191.33v2.75A56.32,56.32,0,0,0,96.4,229.16l27.33,34.31a53.27,53.27,0,0,0,41.64,20.28h25.57A53.31,53.31,0,0,0,233.4,262.4l26-34.29a56.36,56.36,0,0,0,11.36-34v-2.77Z"/><circle class="cls-4" cx="153.33" cy="215.21" r="5.16"/><circle class="cls-4" cx="178.19" cy="219.76" r="5.16" transform="translate(-58.16 375.28) rotate(-84.31)"/><circle class="cls-4" cx="205.58" cy="210.06" r="5.16"/><circle class="cls-4" cx="190.43" cy="242.05" r="5.16"/><circle class="cls-4" cx="163.64" cy="252.36" r="5.16"/><path class="cls-1" d="M356.24,116.39c-11.1-2-28.63-1-34.34,5.53-14.66,16.83-15.7,87.88-15.7,87.88,16.63-30.22,66.39-32.3,70.12-53.07C381.46,128.09,364.83,118,356.24,116.39Zm-7.61,41.49A15.38,15.38,0,1,1,364,142.49,15.38,15.38,0,0,1,348.62,157.87Z"/><rect class="cls-5" x="84.75" y="173.83" width="186.53" height="15.17"/><rect class="cls-6" width="33.67" height="820"/></svg>