<svg id="Layer_1" data-name="Layer 1" xmlns="http://www.w3.org/2000/svg" viewBox="0 0 400 400"><defs><style>.cls-1{fill:#e1e1df;}.cls-2{fill:#805026;}.cls-3{fill:#47301f;}.cls-4{fill:#95623b;}.cls-5{fill:#f9e1aa;}</style></defs><title>Vanilla Mocha</title><path class="cls-1" d="M28.5,99.6v83.72a82.68,82.68,0,0,0,18.72,52.39l42,51.24a82.68,82.68,0,0,0,64,30.29h39.27a82.68,82.68,0,0,0,65.23-31.87l39.89-51.21A82.68,82.68,0,0,0,315,183.35V99.6Z"/><rect class="cls-1" x="108.06" y="314.76" width="129.92" height="18.88" rx="2.12" ry="2.12"/><path class="cls-2" d="M79,138.56v56.05a56.32,56.32,0,0,0,12.19,35.08L118.55,264a53.27,53.27,0,0,0,41.64,20.28h25.57a53.31,53.31,0,0,0,42.47-21.34l26-34.29a56.36,56.36,0,0,0,11.36-34V138.56Z"/><path class="cls-3" d="M79,191.86v2.75a56.32,56.32,0,0,0,12.19,35.08L118.55,264a53.27,53.27,0,0,0,41.64,20.28h25.57a53.31,53.31,0,0,0,42.47-21.34l26-34.29a56.36,56.36,0,0,0,11.36-34v-2.77Z"/><circle class="cls-4" cx="148.15" cy="215.74" r="5.16"/><circle class="cls-4" cx="173.02" cy="220.29" r="5.16" transform="translate(-63.34 370.61) rotate(-84.31)"/><circle class="cls-4" cx="200.41" cy="210.59" r="5.16"/><circle class="cls-4" cx="185.26" cy="242.58" r="5.16"/><circle class="cls-4" cx="158.46" cy="252.89" r="5.16"/><path class="cls-1" d="M351.06,116.92c-11.1-2-28.63-1-34.34,5.53-14.66,16.83-15.7,87.88-15.7,87.88,16.63-30.22,66.39-32.3,70.12-53.07C376.29,128.62,359.66,118.48,351.06,116.92Zm-7.61,41.49A15.38,15.38,0,1,1,358.83,143,15.38,15.38,0,0,1,343.45,158.4Z"/><rect class="cls-5" x="79.04" y="176.69" width="186.53" height="15.17"/></svg>